<?xml version="1.0" encoding="utf-8"?>
<!-- Generator: Adobe Illustrator 24.2.1, SVG Export Plug-In . SVG Version: 6.00 Build 0)  -->
<svg version="1.1" id="Capa_1" xmlns="http://www.w3.org/2000/svg" xmlns:xlink="http://www.w3.org/1999/xlink" x="0px" y="0px"
	 viewBox="0 0 200 200" style="enable-background:new 0 0 200 200;" xml:space="preserve">
<g>
	<g>
		<path d="M142,124.8c-0.1,19.1-0.9,40.4-1.4,52.1c-0.2,4.5-0.3,7.5-0.3,8.5c0,8.2-2.5,12.9-6.8,12.9c-4.4,0-8.4-1-9.4-13
			c-0.5-6.1-0.8-17.6-0.8-35.2l0-11c0-2.5,0-4.8,0-6.8c0-2.3,0-6.3,0-6.6c4.3-0.2,7.9-0.1,11.2,0.3c1.3,0.1,2.6,0.1,3.9-0.1
			C139.7,125.8,140.8,125.5,142,124.8z M116.1,95.8c-4.1,0.3-8.3,1.8-12,4.4c-0.8,0.6-1.6,1.2-2.3,1.8c0.3-2.3,0.7-4.6,1.2-7.2
			c0.6-3,3.4-4.3,8.5-4l0.4,0c0.6,0,3.1,0.5,3.9,2c0,0.8,0.1,1.7,0.3,2.6L116.1,95.8z M118.7,131.2c0,7.6-15,9.6-19.7-1.7
			c0-1.7-0.1-3.2-0.1-4.8c3.2,1.1,8,0.7,14.3,0.1c1.7-0.2,3.5-0.3,5.4-0.5V131.2z M97.9,90c0,0.9-0.1,1.9-0.3,3
			c-1.2,6.5-2,11.4-2.4,17.6c-1.3,2.6-2,5.2-2,7.4c0,1.8,0.4,3.5,1.3,4.8c0.1,0.2,0.2,0.4,0.4,0.6c0,1.3,0,2.6,0.1,4
			c-2.9,1.8-5.8,1.1-7.7,0.2c-4.1-2-7.3-6.7-7.6-11.1c0-4.2,2.9-20.5,6.9-29.3c0.9-1.9,2.1-3.1,3.6-3.6c1.7-0.5,3.4,0.1,4.4,0.7
			C96.7,85.8,97.9,87.1,97.9,90z M82.1,81.9c0,1.3-0.4,2.8-1.6,6.2c-3.3,8.9-5.7,22.2-5.8,26.9c-1.3,2.4-3,3.4-5.1,2.9
			c-3.9-1-7.6-6.5-7.6-10.1v0c0-17,5.4-25.2,10-29.1c2.5-2.2,5.2-2.9,7.4-2c1.5,0.6,2.5,1.9,2.7,3.4C82.1,80.8,82.1,81.3,82.1,81.9z
			 M149.1,75.9c0,0.5,0,1.1-0.1,1.7c-0.1,1.2-0.5,3.8-1,7c-1.2,7.6-3,19.2-3.6,29.1c-0.1,1.2-0.9,3-2.6,4.5c-1.8,1.6-4.2,2.3-6.6,2
			c-7.9-0.9-15.9-0.2-22.3,0.4c-6.5,0.6-12.7,1.1-13.8-0.7c-0.3-0.5-0.4-1.1-0.4-1.8c0-3.5,3.2-9.3,8.5-13.1c3-2.1,9-5.2,16.2-2.3
			l1.5-2.4c-2.2-2.2-3.5-5-3.5-7.6c0-2.5,1.1-4.7,2.9-6l-1.1-2.6c-11.3,3.2-20.3-1.3-25.8-5.6c-9.6-7.5-14.8-19-14.8-25.9
			c0-0.9,0.1-1.7,0.2-2.4l-2.7-0.7c-0.6,2.5-0.9,5-0.9,7.5c0,5.1,1.3,9.4,2.8,12.7C79.3,69.5,76.6,70,74,71c-4.9,2-16,8.9-17.4,31.8
			c-2.5-4.3-4.9-13.2-4.9-31.5c0-4.1,0.1-7.7,0.2-10.1c0.9-29.5,8-34.1,8-34.2l0.7-0.4l0-0.9c0,0-0.1-2-0.1-5C60.6,11,62.2,1,62.2,1
			L116,1l0.1,0.5c0.2,1.3,0.7,5.2,0.7,7.4c0,1.2,0,2.5,0,3.7c0,1.3,0,2.6,0,4c0,4.7,0.2,9.4,2,12.7c2.4,4.6,7,9.6,11.8,15
			C139.2,54,149.1,65,149.1,75.9z"/>
	</g>
</g>
</svg>
