<?xml version="1.0" encoding="utf-8"?>
<!-- Generator: Adobe Illustrator 24.2.1, SVG Export Plug-In . SVG Version: 6.00 Build 0)  -->
<svg version="1.1" id="Capa_1" xmlns="http://www.w3.org/2000/svg" xmlns:xlink="http://www.w3.org/1999/xlink" x="0px" y="0px"
	 viewBox="0 0 171.2 200.3" style="enable-background:new 0 0 171.2 200.3;" xml:space="preserve">
<style type="text/css">
	.st0{fill:#FFFFFF;}
</style>
<g>
	<g>
		<rect class="st0" width="171.2" height="200.3"/>
	</g>
	<g>
		<path d="M23.6,183.8l0-0.1h-1.2c-0.6,0-1,0.4-1.5,1.3l0,0.9c0,0.3,0,0.6-0.1,1l0,0.1l0,0.1c0.1,0.1,0.1,0.2,0.1,0.2
			c0,0.2-0.1,0.3-0.1,0.4h-0.1l-0.1,0.2c-0.2,0.7-0.4,1-0.5,1.2c-0.2,0.1-0.4,0.2-0.5,0.2h-1.2v0.1l-0.3,0.1c-0.1,0-0.3,0-0.8-0.2
			c-0.2-0.3-0.8-0.5-2.8-0.9l-0.2,0l-0.1,0.1c-0.4,0.3-0.5,0.5-0.6,0.5c-0.3-0.1-0.4-0.6-0.4-1c0-0.3,0.1-0.6,0.3-1l0.1-0.3h-0.3
			c0-0.1-0.1-0.3-0.3-0.7c0.1-0.9,0.1-1.7,0.1-2.3v-0.9c0-0.4,0.2-0.8,1.4-0.8h0.6c0.2,0,0.8,0,1.2,1.1c0,1.5,0.4,2.4,1.1,2.7l0.1,0
			h0.6l0.1-0.1c0.7-0.6,1-1.1,1-1.5c-0.1-2.4-0.2-3-0.3-3.3c0-0.2,0.1-0.8,0.3-3.4l0,0l0,0c-0.3-1.1-0.7-1.6-1.1-1.6
			c-0.4,0-0.7,0.2-0.9,0.4c-0.7,0.2-0.8,1.3-0.8,2.2c0,0.3-0.1,0.7-1.1,0.9H15l-0.6-0.3v0.3h-0.2c-0.4,0-0.9-0.3-1.3-0.8
			c0-0.2,0-0.5,0.1-1.4l0,0l-0.2-0.7l0-0.2c0.2-0.9,0.2-1,0.2-1.1V175c0-0.1,0-0.3-0.2-1.6l0-0.1c0.1-0.4,0.2-0.7,0.5-0.7h0.3v-0.1
			c0.1,0,0.2-0.1,0.4-0.2c0.9,0.1,1.5,0.1,1.7,0.1h0.1l0.1-0.1c0.4-0.3,0.7-0.4,1.2-0.5c0.4,0.6,0.8,0.9,1.4,0.9h0.2
			c0.2,0,0.5-0.1,0.8-0.2l0.1,0c1.5,0.5,2.3,1.1,2.3,1.6v0.3l-0.6,1.6l0,0.3l0,0.1c0.2,0.3,0.4,0.4,0.6,0.5c0.7,0.8,1,0.9,1.2,0.9
			h0.1c0.9,0,1-1,1.1-1.4l0-0.6c-0.5-3-0.8-4.1-1.1-4.5v-0.1c0-0.1,0-0.2-0.5-0.8c-0.4-0.4-1.3-0.7-2.7-0.9l-0.3,0v0.2
			c-0.1,0-0.2,0.1-0.4,0.2c-0.1,0-0.3-0.1-0.9-0.3l-0.1,0l-5.8,0.4c-0.1,0-0.4-0.1-1-0.2c-0.3,0-0.6,0-1.1,0.1
			c-1-0.1-1.8-0.1-2.6-0.1c-1.2,0-1.9,0.3-2.2,0.8l0,0.4c0,0.7,0.4,1.3,1.1,1.6l0.2,0.1l0.1-0.1c0.8-0.4,1.1-0.4,1.2-0.4
			c0.5,0,0.9,0,1.4,0.1c0.3,0,0.9,0,0.9,1.3v2.5c0,0.8-0.1,1.4-0.3,1.8l0,0.1l0.1,0.6v0.6l-0.2,0.5h0.2c0,0.1,0.1,0.4,0.2,0.8
			c-0.1,0.6-0.2,1.5-0.3,2.8c0.1,0.3,0.1,0.7,0.1,1.2c0,0,0,0.2-0.4,0.9l0,0l0.2,3.5c0,0.6-0.3,0.6-0.4,0.6H9.7
			c-0.3,0-0.8-0.1-1.4-0.2l0,0l-0.2,0c-2.1,0.3-2.5,1.3-2.5,2.1v0.3l0,0.1c0.4,0.6,1.1,0.9,2.3,0.9c0.2,0,0.4-0.1,0.7-0.3h0.1
			c0.1,0.2,0.3,0.4,0.5,0.5l0.1,0h0.8l0.4-0.8c0.6,0.2,0.7,0.2,0.8,0.2l0.8-0.3c0.3,0.2,1.3,0.4,4.1,0.6c0.4,0,0.8-0.2,1.4-0.5
			c0.7,0.2,1.3,0.4,1.7,0.4h0.3l0.7-0.4c0.1,0,0.3,0.1,0.6,0.3l0,0l-0.1,0.1h0.6c0.3,0,0.6-0.2,1-0.5l0.6,0.1c0.2,0,0.4-0.1,0.6-0.5
			l0-0.1c0.3-2.3,0.5-4.1,0.9-5.5C24.5,184.8,24.2,184.1,23.6,183.8z"/>
		<path d="M46.4,190.4c-0.1-0.8-0.2-1.4-0.3-1.8l0.2-1.8l0-0.1c-0.2-1.4-0.5-2.5-0.8-3.4l0,0l0.1-0.6l0-0.1
			c-0.2-0.5-0.6-1.1-1.2-1.1h-0.1l-0.1,0.1c-0.4,0.3-0.7,0.7-0.7,1.1l0.1,1l-0.5,1.6l0.3,1c0,0,0,0.1-0.1,0.2l0,0.1l0,0.1
			c0.1,0.1,0.1,0.2,0.1,0.2c0,0,0,0.3-0.2,1.7c0,0.7-0.4,1.1-1.3,1.4h-0.3c-0.2,0-0.5-0.1-0.9-0.3l-0.5-0.3v0.1c-0.1,0-0.2,0-0.4,0
			l-0.1,0c-0.5,0.2-0.9,0.4-1.2,0.6v-0.1l-0.5,0.5c0,0-0.1,0.1-0.3,0.2h-0.9c-0.6,0-1-0.1-1.1-0.3c-0.1-0.8-0.2-1.2-0.3-1.4l0.2-0.5
			l-0.2-1.6l0.1-1.1c-0.2-1.3-0.3-2-0.3-2.3c0-0.1,0-0.3,0.2-0.9c0-1.1,0.1-2.6,0.2-4.4l0-0.1l0,0c-0.3-0.5-0.4-0.7-0.4-0.8
			c0.4-1.1,0.4-1.2,0.4-1.2c0-0.6-0.1-1.2-0.4-1.7c0.2-0.9,0.3-1.5,0.3-1.9c0-0.2,0.5-0.4,1.8-0.4c0.8,0.3,0.9,0.3,0.9,0.3l1.3-0.4
			c0.1,0,0.3,0.1,0.4,0.1H40c0.5,0,0.8-0.2,0.9-0.6l0-0.3l0-0.1c-0.3-0.5-1-1-2.2-1.4l-0.1,0l-0.1,0c-0.7,0.2-0.9,0.2-0.9,0.2h-1.1
			c-0.5,0-0.9-0.1-1.1-0.2l-0.1,0l-0.1,0c-0.4,0.1-0.8,0.1-1,0.1h-0.4l-0.3-0.1l-0.8,0.3c-0.1-0.1-0.2-0.1-0.3-0.1l-0.1,0
			c-0.8,0-1.9,0-3,0.1c-0.4-0.1-0.6-0.1-0.8-0.1c-0.5,0-0.9,0.3-1.3,1.1l0,0.1l0,0.1c-0.2,0.2-0.2,0.7-0.2,0.9
			c0,0.3,0.2,0.5,0.6,0.7l0.1,0l0.7,0l1-0.1c0.1,0.1,0.3,0.2,0.7,0.2h0.3l0.1-0.1c0.3-0.4,0.4-0.5,0.5-0.6h0.3c0.2,0,0.8,0,1.2,1
			c0,0.1,0,0.2-0.1,0.3l0,0.1l0,0.1c0.3,0.8,0.4,1,0.4,1c0,0.4,0,0.8-0.1,1.4l0,0.1l0,0.1c0.1,0.2,0.2,0.5,0.2,0.7v0.6
			c0,0.3-0.1,1-0.3,2.2c0.2,2.3,0.3,3.6,0.3,3.8c-0.1,0.4-0.1,0.9-0.1,1.6l0,1.2l-0.2,0.7c0,0.6,0.1,1.2,0.2,1.8
			c0,1.2-0.3,1.3-0.3,1.3c0,0-0.2,0-0.7-0.3l-0.1,0l-0.1,0c-0.9,0.2-1.6,0.4-2,0.6l-0.7-0.5h-0.1c-0.8,0-1.4,0.6-1.6,1.9l0,0l0,0
			c0.1,0.5,0.3,1,0.8,1l0.1,0c0.3-0.1,0.6-0.1,0.8-0.1h2c1,0,2.1-0.1,3.3-0.4H34c0.3,0.2,0.6,0.4,0.8,0.5l0.1,0l0.9-0.2
			c0.5,0.1,0.9,0.2,1.3,0.4l0.1,0.1l0.1,0c0.4-0.1,1.1-0.3,1.8-0.4c0,0,0.1,0,0.2,0l-0.1,0.2h0.6l0.1,0c1-0.4,1.2-0.4,1.2-0.4h0
			c0.7,0.3,1.6,0.5,2.7,0.5l0.2,0l0.2-0.3c1.7,0,2-0.6,2-1c0,0,0-0.1-0.1-0.6L46.4,190.4z"/>
		<path d="M67.5,190.4c-0.1-0.8-0.2-1.4-0.3-1.8l0.2-1.8l0-0.1c-0.2-1.4-0.5-2.5-0.8-3.4l0,0l0.1-0.6l0-0.1
			c-0.2-0.5-0.6-1.1-1.2-1.1h-0.1l-0.1,0.1c-0.4,0.3-0.7,0.7-0.7,1.1l0.1,1l-0.5,1.6l0.3,1c0,0,0,0.1-0.1,0.2l0,0.1l0,0.1
			c0.1,0.1,0.1,0.2,0.1,0.2c0,0,0,0.3-0.2,1.7c0,0.7-0.4,1.1-1.3,1.4h-0.3c-0.2,0-0.5-0.1-0.9-0.3l-0.5-0.3v0.1c-0.1,0-0.2,0-0.4,0
			l-0.1,0c-0.5,0.2-0.9,0.4-1.2,0.6v-0.1l-0.5,0.5c0,0-0.1,0.1-0.3,0.2h-0.9c-0.6,0-1-0.1-1.1-0.3c-0.1-0.8-0.2-1.2-0.3-1.4l0.2-0.5
			l-0.2-1.6l0.1-1.1c-0.2-1.3-0.3-2-0.3-2.3c0-0.1,0-0.3,0.2-0.9c0-1.1,0.1-2.6,0.2-4.4l0-0.1l0,0c-0.3-0.5-0.4-0.7-0.4-0.8
			c0.4-1.1,0.4-1.2,0.4-1.2c0-0.6-0.1-1.2-0.4-1.7c0.2-0.9,0.3-1.5,0.3-1.9c0-0.2,0.5-0.4,1.8-0.4c0.8,0.3,0.9,0.3,0.9,0.3l1.3-0.4
			c0.1,0,0.3,0.1,0.4,0.1h0.2c0.5,0,0.8-0.2,1-0.6l0-0.3l0-0.1c-0.3-0.5-1-1-2.2-1.4l-0.1,0l-0.1,0c-0.7,0.2-0.9,0.2-0.9,0.2h-1.1
			c-0.5,0-0.9-0.1-1.1-0.2l-0.1,0l-0.1,0c-0.4,0.1-0.8,0.1-1,0.1H55l-0.3-0.1l-0.8,0.3c-0.1-0.1-0.2-0.1-0.3-0.1l-0.1,0
			c-0.8,0-1.9,0-3.1,0.1c-0.4-0.1-0.6-0.1-0.8-0.1c-0.5,0-0.9,0.3-1.3,1.1l0,0.1l0,0.1c-0.2,0.2-0.2,0.7-0.2,0.9
			c0,0.3,0.2,0.5,0.6,0.7l0.1,0l0.7,0l1-0.1c0.1,0.1,0.3,0.2,0.7,0.2h0.3l0.1-0.1c0.3-0.4,0.4-0.5,0.5-0.6h0.3c0.2,0,0.8,0,1.2,1
			c0,0.1,0,0.2-0.1,0.3l0,0.1l0,0.1c0.3,0.8,0.4,1,0.4,1c0,0.4,0,0.8-0.1,1.4l0,0.1l0,0.1c0.1,0.2,0.2,0.5,0.2,0.7v0.6
			c0,0.3-0.1,1-0.3,2.2c0.2,2.9,0.3,3.7,0.3,3.8c-0.1,0.4-0.1,0.9-0.1,1.6l0,1.2l-0.2,0.7c0,0.6,0.1,1.2,0.2,1.8
			c0,1.2-0.3,1.3-0.3,1.3c0,0-0.2,0-0.7-0.3l-0.1,0l-0.1,0c-0.9,0.2-1.6,0.4-2,0.6l-0.7-0.5h-0.1c-0.8,0-1.4,0.6-1.6,1.9l0,0l0,0
			c0.1,0.5,0.3,1,0.8,1l0.1,0c0.3-0.1,0.6-0.1,0.8-0.1h2c1,0,2.1-0.1,3.3-0.4h0.1c0.3,0.2,0.6,0.4,0.8,0.5l0.1,0l0.9-0.2
			c0.5,0.1,0.9,0.2,1.3,0.4l0.1,0.1l0.1,0c0.4-0.1,1.1-0.3,1.8-0.4c0,0,0.1,0,0.2,0l-0.1,0.2h0.6l0.1,0c1-0.4,1.2-0.4,1.2-0.4h0
			c0.7,0.3,1.6,0.5,2.7,0.5l0.2,0l0.2-0.3c1.7,0,2-0.6,2-1c0,0,0-0.1-0.1-0.6L67.5,190.4z"/>
		<path d="M83.8,178.3c-0.1,0-0.4,0-0.5,0.4v0.4h0.4c0.2,0,0.5-0.1,0.5-0.4l-0.2-0.4H83.8z"/>
		<path d="M87,176.5c0-0.1-0.1-0.3-0.2-0.4c-0.2-0.6-0.3-1.1-0.4-1.3h0.1l-0.2-0.3c0-0.1-0.2-0.3-0.3-0.4c-0.2-0.4-0.4-0.7-0.5-0.9
			l-0.1-0.2c-0.4-1-0.8-1.5-1.3-1.6c-1-0.9-1.5-1.2-1.8-1.3c-0.2-0.4-1.1-0.7-2.8-0.9l-0.1,0l-1.4,0.5v0l-0.3,0
			c-1.2,0.1-2.7,0.4-2.9,1.1c-0.5,0.1-0.8,0.3-1,0.4l-0.1,0.1l0.1,0.1c-0.1,0.1-0.1,0.2-0.1,0.3c-1.3,1.6-1.4,1.9-1.4,2
			c-0.4,0.2-0.6,0.6-0.7,0.8l0,0.1l0.1,0.5c-0.4,1-0.7,1.7-0.9,2l0,0.1v1.5c0,0.3-0.1,0.5-0.2,0.7l0,0.1l0,0.1
			c0.1,0.7,0.1,0.9,0.1,0.9c-0.2,0.7-0.2,0.8-0.2,0.9v0.4l0.4,0.7c-0.1,0.9-0.1,1.7-0.1,2.3v0.5c0,0.2,0.1,0.9,0.3,1.9
			c0,0.5,0.4,1.4,1.3,2.6c0,0.6,0.4,1.1,1.2,1.5l1.4,1.3l0.1,0c0.8,0.1,1.1,0.2,1.2,0.3l0.1,0.1h0.8l0,0c0.1,0.1,0.4,0.2,0.9,0.2
			h1.1c0.2,0.2,0.5,0.3,0.7,0.4v0.3l0.3-0.3h0.3v-0.2c0,0,0,0,0,0c0.5-0.4,1-0.8,1.6-1.1h0.6c0.6,0,1.2-0.4,1.9-1.4
			c0.8-0.7,1.2-1.2,1.2-1.6c0.6-0.5,1-1.3,1-2.4l0.7-1.2l-0.2-0.8c0.2-1,0.3-1.3,0.3-1.4c0-0.2,0-0.5-0.1-0.9l0.1-0.7
			C87.1,178.7,87,176.9,87,176.5z M84.5,184.2c0,0,0,0.1-0.1,0.2l0,0.1c0,0,0,0.2-0.5,0.8l0,0.1v0.8c0,0.1,0,0.3-0.3,0.7l0,0.1
			c0,0,0,0.1,0,0.1l-0.3,0.3l-0.1,0.1c-0.3,0.9-0.8,1.6-1.4,1.9l-0.1,0.1c-0.5,0.6-1.3,1.1-2.5,1.4l-2-0.5c-0.6-0.7-1.1-1-1.5-1.1
			c-0.7-0.9-1.1-1.2-1.4-1.3c-0.4-0.9-0.6-1.2-0.8-1.4c-0.1-0.9-0.3-1.4-0.6-1.6c-0.2-1-0.4-1.9-0.8-2.6c0.3-0.8,0.3-0.9,0.3-1v-0.1
			l-0.3-0.5l0.1-1l-0.1-0.7c0-0.1,0-0.2,0.3-0.6l0-0.7c0.6-2.7,1.2-2.8,1.2-2.8h0.2l0.1-0.1c1-1.9,1.6-2.2,1.8-2.2l0.1,0l0.1-0.1
			c0.6-0.7,1.2-1.1,1.8-1.1h1.2c0.2,0.1,0.2,0.2,0.2,0.1v0.2l0.2,0.1c1.1,0.3,1.9,0.5,2.3,0.7l0.1,0c0.5,0,1,0.6,1.5,1.6l0.1,0.2
			h0.1c0.6,1.1,0.7,1.4,0.7,1.4l0,0.6l-0.1,1.2H84c0.4,0.7,0.6,1.9,0.8,3.6c-0.3,0.9-0.5,1.5-0.5,1.8
			C84.4,183.4,84.4,183.7,84.5,184.2z"/>
		<path d="M105.2,185c-0.3-0.9-0.7-1.6-1-2c-0.4-0.9-0.8-1.6-1.1-1.9l-0.1,0c-1-0.5-1.7-0.9-2.1-1.2c-1.2-0.5-3-0.9-5.5-1.2l0,0
			c-0.4-0.4-0.8-0.7-1.3-0.9c-0.7-0.6-1.1-1.5-1.1-2.5c0.2-1.2,0.4-1.7,0.5-1.8c1.6-1.6,2.3-1.8,2.6-1.8c0.6,0,1.4,0.2,2.1,0.6
			l0.2,0.1l0.2-0.1c0.1,0,0.1-0.1,0.2-0.1l0.3,0c0.1,0,0.2,0,0.2,0v0.1l0.1,0.1c1.1,0.6,1.7,1.2,1.9,1.8c0.5,2.8,0.9,3.4,1.3,3.6
			l-0.1,0.1h0.2l-0.1,0.1h0.9l0.1,0c0.5-0.3,0.8-0.7,0.9-1.2l0,0l0,0c-0.2-1.6-0.4-2.2-0.6-2.4c0.3-1.3,0.4-2.5,0.4-3.4
			c0-0.4-0.4-0.9-1.3-1.3l-0.1,0H103c-0.2,0-0.5,0.1-1.1,0.9c-1.6-0.6-2.8-0.9-3.5-0.9c-0.2,0-0.4,0-0.8,0.1
			c-0.8-0.1-1.3-0.1-1.7-0.1c-1,0-2.2,0.6-3.7,1.9l-0.1,0.1c-1.1,2-1.6,3.3-1.6,4.2c0.2,1.6,0.4,2.3,0.7,2.6l0.1,0.2
			c1.5,2.1,2.1,2.4,2.4,2.5c0.1,0.1,0.4,0.3,0.7,0.5l0.1,0l1.1,0c0,0,0.3,0.1,1.4,0.8l0.1,0.1l1.5-0.3c1.9,0.9,2.9,1.7,2.9,2.4
			c0,0.1,0,0.2-0.2,0.5l0,0.1l0.1,0.4c0,0.4-0.1,0.7-0.2,1.1l-0.1,0.3h0.1c-0.2,0.4-0.4,0.7-0.8,1l-0.1,0.1l0,0
			c-0.1,0.1-0.3,0.2-0.3,0.3c-1.3,0.8-2.4,1.2-3.3,1.2c-0.2,0-0.3,0-0.4-0.2l-0.1-0.2h-0.2c-0.1,0-0.1,0-0.8,0.2h0
			c-1,0-1.9-0.8-2.6-2.3l0-0.1c-0.6-0.6-0.7-0.9-0.7-1.1c0-0.7-0.4-1.2-1.2-1.4l-0.1,0c-0.2,0-0.4,0.1-0.6,0.2l-0.2,0.1l0.1,0.2
			c-0.2,0.2-0.2,0.6-0.2,0.8v0.2c0,0.2,0.1,0.5,0.2,0.9c-0.3,1.5-0.4,2.4-0.4,2.7c0,0.2,0,0.5,0.1,1.1l-0.1,1.2c0,0.7,0.4,1,1.2,1
			h0.6l0.9-1.2h0.1c0.1,0,0.2,0,0.2,0c1.9,1.2,2.1,1.2,2.2,1.2h0.6c0.4,0,0.9,0,1.5-0.1c0.5,0.2,0.9,0.3,1.2,0.3c0,0,0,0,0,0
			c2.3-0.3,3.5-0.6,3.7-1.2c0.8-0.2,1.3-0.4,1.5-0.8l0.1,0.1l0-0.4c0,0,0-0.2,0.4-0.9c0.5-0.5,0.9-1.3,1.4-2.6l0-0.1
			c0-0.3,0-0.9-0.1-1.7L105.2,185L105.2,185z"/>
		<path d="M123.5,185c-0.3-0.9-0.7-1.6-1-2c-0.4-0.9-0.8-1.6-1.1-1.9l-0.1,0c-1-0.5-1.7-0.9-2.1-1.2c-1.2-0.5-3-0.9-5.5-1.2l0,0
			c-0.4-0.4-0.8-0.7-1.3-0.9c-0.7-0.6-1.1-1.5-1.1-2.5c0.2-1.2,0.4-1.7,0.5-1.8c1.6-1.6,2.3-1.8,2.6-1.8c0.6,0,1.4,0.2,2.1,0.6
			l0.2,0.1l0.2-0.1c0.1,0,0.1-0.1,0.2-0.1l0.3,0c0.1,0,0.2,0,0.2,0v0.1l0.1,0.1c1.1,0.6,1.7,1.2,1.9,1.8c0.5,2.8,0.9,3.4,1.3,3.6
			l-0.1,0.1h0.2l-0.1,0.1h0.9l0.1,0c0.5-0.3,0.8-0.7,0.9-1.2l0,0l0,0c-0.2-1.6-0.4-2.2-0.6-2.4c0.3-1.3,0.5-2.5,0.5-3.4
			c0-0.4-0.4-0.9-1.3-1.3l-0.1,0h-0.1c-0.2,0-0.5,0.1-1.1,0.9c-1.6-0.6-2.8-0.9-3.5-0.9c-0.2,0-0.4,0-0.8,0.1
			c-0.8-0.1-1.3-0.1-1.7-0.1c-1,0-2.2,0.6-3.7,1.9l-0.1,0.1c-1.1,2-1.6,3.3-1.6,4.2c0.2,1.6,0.4,2.3,0.7,2.6l0.1,0.2
			c1.5,2.1,2.1,2.4,2.4,2.5c0.1,0.1,0.4,0.3,0.7,0.5l0.1,0l1.1,0c0,0,0.3,0.1,1.4,0.8l0.1,0.1l1.5-0.3c1.9,0.9,2.9,1.7,2.9,2.4
			c0,0.1,0,0.2-0.2,0.5l0,0.1l0.1,0.4c0,0.4-0.1,0.7-0.2,1.1l-0.1,0.3h0.1c-0.2,0.4-0.4,0.7-0.8,1l-0.1,0.1l0,0
			c-0.1,0.1-0.3,0.2-0.3,0.3c-1.3,0.8-2.4,1.2-3.3,1.2c-0.2,0-0.3,0-0.4-0.2l-0.1-0.2h-0.2c-0.1,0-0.1,0-0.8,0.2h-0.1
			c-1,0-1.9-0.8-2.6-2.3l0-0.1c-0.6-0.6-0.7-0.9-0.7-1.1c0-0.7-0.4-1.2-1.2-1.4l-0.1,0c-0.2,0-0.4,0.1-0.6,0.2l-0.2,0.1l0.1,0.2
			c-0.2,0.2-0.2,0.6-0.2,0.8v0.2c0,0.2,0.1,0.5,0.2,0.9c-0.3,1.5-0.4,2.4-0.4,2.7c0,0.2,0,0.5,0.1,1.1l-0.1,1.2c0,0.7,0.4,1,1.2,1
			h0.6l0.9-1.2h0.1c0.1,0,0.2,0,0.2,0c1.9,1.2,2.1,1.2,2.2,1.2h0.6c0.4,0,0.9,0,1.5-0.1c0.5,0.2,0.9,0.3,1.2,0.3c0,0,0,0,0,0
			c2.3-0.3,3.5-0.6,3.7-1.2c0.8-0.2,1.3-0.4,1.5-0.8l0.1,0.1l0-0.4c0,0,0.1-0.2,0.4-0.9c0.5-0.5,0.9-1.3,1.4-2.6l0-0.1
			c0-0.3,0-0.9-0.1-1.7L123.5,185L123.5,185z"/>
		<path d="M139.5,178.3c-0.1,0-0.4,0-0.5,0.4v0.4h0.4c0.2,0,0.5-0.1,0.5-0.4l-0.2-0.4H139.5z"/>
		<path d="M142.7,176.5c0-0.1-0.1-0.3-0.2-0.4c-0.2-0.6-0.3-1.1-0.4-1.3h0.1l-0.2-0.3c0-0.1-0.2-0.3-0.3-0.4
			c-0.2-0.4-0.4-0.7-0.5-0.9l-0.1-0.2c-0.4-1-0.8-1.5-1.3-1.6c-1-0.9-1.5-1.2-1.8-1.3c-0.2-0.4-1.1-0.7-2.8-0.9l-0.1,0l-1.4,0.5v0
			l-0.3,0c-1.2,0.1-2.7,0.4-2.9,1.1c-0.5,0.1-0.8,0.3-1,0.4l-0.1,0.1l0.1,0.1c-0.1,0.1-0.1,0.2-0.1,0.3c-1.3,1.6-1.4,1.9-1.4,2
			c-0.4,0.2-0.6,0.6-0.7,0.8l0,0.1l0.1,0.5c-0.4,1-0.7,1.7-0.9,2l0,0.1v1.5c0,0.3-0.1,0.5-0.2,0.7l0,0.1l0,0.1
			c0.1,0.7,0.1,0.9,0.1,0.9c-0.2,0.7-0.2,0.8-0.2,0.9v0.4l0.4,0.7c-0.1,0.9-0.1,1.7-0.1,2.3v0.5c0,0.2,0.1,0.9,0.3,1.9
			c0,0.5,0.4,1.4,1.3,2.6c0,0.6,0.4,1.1,1.2,1.5l1.4,1.3l0.1,0c0.8,0.1,1.1,0.2,1.2,0.3l0.1,0.1h0.8v0c0.2,0.1,0.4,0.2,0.9,0.2h1.1
			c0.2,0.2,0.5,0.3,0.7,0.4v0.3l0.3-0.3h0.3v-0.2c0,0,0,0,0,0c0.5-0.4,1-0.8,1.6-1.1h0.6c0.6,0,1.2-0.4,1.9-1.4
			c0.8-0.7,1.2-1.2,1.2-1.6c0.6-0.5,1-1.3,1-2.4l0.7-1.2l-0.2-0.8c0.2-1,0.3-1.3,0.3-1.4c0-0.2,0-0.5-0.1-0.9l0.1-0.7
			C142.7,178.7,142.7,176.9,142.7,176.5z M140.2,184.2c0,0,0,0.1-0.1,0.2l0,0.1c0,0,0,0.2-0.5,0.8l0,0.1v0.8c0,0.1,0,0.3-0.3,0.7
			l0,0.1c0,0,0,0.1,0,0.1l-0.3,0.3l-0.1,0.1c-0.3,0.9-0.8,1.6-1.4,1.9l-0.1,0.1c-0.5,0.6-1.3,1.1-2.4,1.4l-2-0.5
			c-0.6-0.7-1.1-1-1.5-1.1c-0.7-0.9-1.1-1.2-1.4-1.3c-0.4-0.9-0.6-1.2-0.8-1.4c-0.1-0.9-0.3-1.4-0.6-1.6c-0.2-1-0.4-1.9-0.8-2.6
			c0.3-0.8,0.3-0.9,0.3-1v-0.1l-0.3-0.5l0.1-1l-0.1-0.7c0-0.1,0-0.2,0.3-0.6l0-0.7c0.6-2.7,1.2-2.8,1.2-2.8h0.2l0.1-0.1
			c1-1.9,1.6-2.2,1.8-2.2l0.1,0l0.1-0.1c0.6-0.7,1.2-1.1,1.8-1.1h1.2c0.2,0.1,0.2,0.2,0.2,0.1v0.2l0.2,0.1c1.1,0.3,1.9,0.5,2.3,0.7
			l0.1,0c0.5,0,1,0.6,1.5,1.6l0.1,0.2h0.1c0.6,1.1,0.7,1.4,0.7,1.4l0,0.6l-0.1,1.2h0.2c0.4,0.7,0.6,1.9,0.8,3.6
			c-0.3,0.9-0.5,1.5-0.5,1.8C140.1,183.4,140.1,183.7,140.2,184.2z"/>
		<path d="M163.7,170.6c-0.3,0-0.6-0.1-0.9-0.2l-2.4-0.6l-0.1,0l-0.1,0.1c0,0-0.2,0.1-0.8,0.1c-0.8-0.2-1.6-0.3-2.3-0.3l-1.4,0.3
			c-0.1,0-0.3,0-0.7-0.1l-0.1,0l-0.8,0.4l0,0.1c-0.1,1.2-0.2,1.4-0.2,1.4l-0.1,0.1v0.1c0,0.2,0.1,0.4,0.2,0.6l0.1,0.1l1-0.1
			c0,0,0.2,0,0.9,0.3l0.1,0l0.6-0.1h0.2c0.4,0,0.6,0.4,0.6,1.1c0,0.5,0,1.1-0.1,1.9c0.1,0.7,0.1,1.3,0.1,1.8c0,0,0,0.1-0.1,0.2
			l-0.1,0.1l0.1,0.1c0,0.1,0.1,0.5,0.2,1.9c0,0,0,0.1-0.1,0.2l0,0.1l0,0.1c0.1,0.3,0.1,0.6,0.1,0.8v0.3c0,0.4,0,0.9-0.1,1.5l0,0l0,0
			c0.1,0.3,0.2,0.5,0.2,0.7c0,0.4-0.1,0.6-0.3,0.7h0c0,0-0.4,0-1.5-2l-0.1-0.1h0c-0.1-0.7-0.2-1.1-0.4-1.3l0-0.1
			c-0.1-0.3-0.1-0.5-0.3-0.7c-0.1-0.8-0.2-1.2-0.3-1.4l0.1-0.1l0-0.1c-0.9-2.6-1.5-3.3-1.8-3.6c-0.3-0.4-0.7-1.3-1.1-2.4
			c0-0.5-0.4-1.2-1.3-2.1l-0.1-0.1c-0.1-0.1-0.5-0.2-2.3-0.6l0,0l-1.2,0c-0.8,0.1-1.3,0.2-1.6,0.3l-0.1,0c-0.2,0-0.5,0.1-0.9,0.3
			l-0.1,0.1v0.3c0,0.1,0,0.3,0.1,0.4c0,0.6,0.5,1.3,2.2,1.4c0,0,0.5,0.1,0.7,2.9c0,0.1,0,0.6-0.1,1.5l0.2,1.6c0,0.1,0,0.2-0.2,0.7
			l-0.1,0.3h0.2c0,0.1,0.1,0.4,0.1,0.9c0,0.3-0.1,1.6-0.2,4c0.1,0.5,0.2,0.9,0.3,1.1v0.2c0,0.1,0,0.2,0.1,0.3
			c-0.1,0.9-0.2,1.4-0.2,1.6l0,0.4l0.1,0.6c-0.5,0.8-0.7,1-0.8,1.1l0,0c0,0-0.2,0-0.9-0.4l-0.1,0h-0.1c-0.7,0-1.1,0.6-1.3,2.1v0.5
			c0,0.5,0.9,0.8,3,1.1l0.1,0l0.1,0c0.6-0.3,1-0.3,1.1-0.3h0.6l0.9,0.3l0.4,0c0.1,0,0.3,0,1-0.2c1.6,0,2-0.8,2-1.4v-0.3
			c0-0.5-0.3-0.9-1-1.4l-0.1-0.1h-0.1c-1.2,0-1.9-0.3-2.2-1c0.2-1.5,0.4-1.8,0.4-1.9l0.1-0.1v-0.1c0-0.3-0.1-0.6-0.4-0.8v0
			c0-0.1,0-0.2-0.1-0.2c0-0.1,0.1-0.3,0.2-0.6l0,0l-0.3-2.6c0-0.4,0-1.2,0.1-2.3c0-0.1,0-0.3-0.3-0.9c0.1-1,0.2-1.9,0.5-2.6
			c0,0.1,0.1,0.2,0.1,0.3l0,0.1c1.1,1.6,1.3,2.3,1.3,2.5l0,0.1c0.5,0.8,0.7,1.4,0.7,1.8l0,0.1c0.7,1,0.8,1.4,0.8,1.6v0.1l0,0.1
			c0.7,0.8,0.7,1,0.7,1l-0.1,0.6c0,0.4,0.2,0.7,0.3,0.9l0.1,0.2c0.4,1.1,0.7,1.8,1,2.2c0.2,0.9,0.4,1.4,0.6,1.6v0.1
			c0,0.2,0.1,0.4,0.2,0.5c0.6,1.9,1.2,2.8,1.9,2.8h0c1.7-0.1,2.3-0.2,2.3-0.6v-0.8c0-0.1,0-0.2,0.3-0.5l0.1-0.1v-0.3
			c0-0.1,0-0.3-0.1-0.4c0.1-0.1,0.1-0.2,0.1-0.3c0-0.6-0.1-1.2-0.3-1.8l0.1-0.4c0-0.3,0-0.8-0.1-1.4c0.1-0.6,0.2-1,0.2-1.3v-1.2
			c0-0.1,0-0.4-0.5-2.6c0-0.1,0-0.3,0.4-0.9l0.1-0.1l-0.1-0.2c0-1,0.1-1.7,0.4-2.2l0-0.1c0-0.5-0.2-1.2-0.5-1.9
			c0-0.2,0.2-0.4,0.5-0.7l0.1-0.1v-0.4l-0.1-0.1c-0.4-0.4-0.6-0.7-0.6-0.9c0.1-0.5,0.4-0.9,0.7-1.3c0.5,0,1,0,1.6,0.1
			c0.2,0,0.5-0.1,0.9-0.3l0.1-0.1l0.4-1.8H163.7z"/>
	</g>
	<g>
		<polygon points="159.2,11.9 162.8,13.7 143.7,27.2 151.9,33.5 126.5,62.4 155.6,85.4 117.7,163.5 163.7,163.5 163.7,8.8 		"/>
	</g>
	<g>
		<path d="M149.2,12.8l10.5-5.4H6.6v156.1h38.2L115.9,95L88,71.9l50.5-35.7l-6.1-6.7l22.3-14L149.2,12.8z M58.4,84.3l-10.8-7.8
			l-10.8,7.8L41,71.7l-10.8-7.8h13.3l4.1-12.6l4.1,12.6h13.3l-10.8,7.8L58.4,84.3z"/>
	</g>
</g>
</svg>
