<?xml version="1.0" encoding="utf-8"?>
<!-- Generator: Adobe Illustrator 24.2.1, SVG Export Plug-In . SVG Version: 6.00 Build 0)  -->
<svg version="1.1" id="Capa_1" xmlns="http://www.w3.org/2000/svg" xmlns:xlink="http://www.w3.org/1999/xlink" x="0px" y="0px"
	 viewBox="0 0 170 232.1" style="enable-background:new 0 0 170 232.1;" xml:space="preserve">
<style type="text/css">
	.st0{fill:#FFFFFF;}
</style>
<g>
	<rect class="st0" width="170" height="232.1"/>
</g>
<g>
	<rect x="8" y="8" width="154" height="158.3"/>
</g>
<g>
	<polygon class="st0" points="102.4,119.6 101.5,121.3 96.3,112.3 95.6,116.9 89.5,106.5 89.7,104.1 87.2,98.7 86.9,97.6 85.1,97 
		85.1,97.1 85.2,97.3 81.1,102 82.9,102.7 79.9,113.6 85.3,116 85.5,115.9 109.5,133.4 	"/>
</g>
<g>
	<polygon class="st0" points="116.7,115.6 118.3,115.9 114.6,104.4 106.4,112.7 99.9,100 99.1,101.5 94.6,96.7 94.1,97.8 91.5,95.6 
		92.3,96.5 90.6,97.4 89.9,97 88.6,97.7 88.6,98.5 92.2,103.9 91.4,106.3 96.4,110.1 100.8,117.3 102.3,115.2 112.4,121.5 	"/>
</g>
<g>
	<polygon class="st0" points="53.6,123.6 70.4,126.9 80.3,119.6 67.3,115 79.4,104.2 78,103.4 83.9,97.2 83.7,97.2 83.8,96.4 
		79.5,97 79.8,97.7 74.1,99 72.9,104.5 64.5,104.6 65.5,110.6 51,120.8 48.8,127.8 50,128.5 	"/>
</g>
<g>
	<polygon class="st0" points="59.9,108.1 58.1,99.1 54.6,109.6 	"/>
</g>
<g>
	<polygon class="st0" points="81.3,90.8 78.3,88.9 78.1,89.6 73.2,87.1 72.3,89.2 62.9,85.5 60.1,90.5 49.5,89.8 58.9,96.6 
		70,102.9 71.6,97.7 78.6,97.3 78,96.1 81.8,95.9 81.2,94.9 80.5,94.9 80.4,92.7 80.8,92.4 	"/>
</g>
<g>
	<polygon class="st0" points="70.2,67.8 77.6,63.2 77.7,77.9 79.4,77.1 81.6,83.3 82.5,82.5 83.4,84.7 83.4,84.7 84.6,87.4 
		86.9,86.1 87,85.2 90,86.6 90.4,86.5 90.3,86.4 94.9,83.4 93.7,81.6 101.6,75.3 98.6,70.4 102,65.3 101.9,65.3 85.5,14.8 69,65.3 
		69,65.3 	"/>
</g>
<g>
	<polygon class="st0" points="56.6,130.9 48,139.6 46.1,135.9 42.5,147.1 60.9,133.7 	"/>
</g>
<g>
	<polygon class="st0" points="120.3,124.3 110.5,134.1 128.5,147.1 121.2,124.9 	"/>
</g>
<g>
	<polygon class="st0" points="34.3,72.9 57.5,85.3 62.9,74.2 71.1,86.3 72.2,84.7 77.4,88.6 77.8,87.4 81.1,90.4 80.9,89.9 
		82.1,88.5 80.8,87.1 82.3,85.5 82.9,85.1 82.2,84 81.6,84.5 78.9,79.7 77,80.9 71.4,72.5 66.2,75.1 55.6,65.3 15.9,65.3 33.6,78.2 
			"/>
</g>
<g>
	<polygon class="st0" points="92.4,87.2 91.7,87.4 92.3,87.9 93,87.5 94,89.6 93.4,90.1 94,91.9 93.3,91.9 92.7,93.1 94.4,94.6 
		98.5,98.1 99.8,96.3 108.4,101.6 112,96.7 112.1,96.7 112,96.6 134,80.6 129.8,80.2 125.8,65.3 111.7,65.3 104.4,70.7 111.3,80.9 
		96.7,82 97.6,83.7 91.5,86.3 	"/>
</g>
<g>
	<polygon class="st0" points="138.1,65.3 137.1,76.2 140.1,76.2 155,65.3 	"/>
</g>
<g>
	<path d="M20.1,189c-0.1,0-0.2,0-1.2,0.2l-0.3,0l-0.1,0.3c-0.2,0.3-0.3,0.5-0.3,0.6h-0.3v0.6c0,0.8-0.2,1-0.3,1.1l-0.3,0.2v0.3
		c0,0.7-0.8,1.2-1.4,1.6c-0.2-0.7-0.9-1-2.2-1c0,0,0,0,0,0l-0.2,0.1c-0.2,0.1-0.3,0.2-0.5,0.4c-0.3-0.4-0.5-0.7-0.8-0.9
		c-0.1-0.1-0.4-0.2-0.4-0.8v-0.2l-0.1-0.1c-0.5-0.9-0.7-1.9-0.7-3.1l0.1-0.6l0-0.1c-0.1-0.6-0.1-0.9-0.1-1c0,0,0,0,0-0.1
		c0-0.3,0.1-0.5,0.1-0.7l0.3,0.2v-1c0-0.6,0.1-0.9,0.2-1l0.1-0.2v-0.2c0-0.3,0.2-0.6,0.6-0.9l0.3-0.2v-0.3c0-0.1,0.3-0.2,0.4-0.2
		l0.2,0l0.1-0.2c0.1-0.1,0.2-0.2,0.2-0.3c0,0,0,0,0.1,0.1l0.2,0.2l0.5,0l0.2-0.1c0.3-0.1,0.5-0.4,0.7-0.7c0.4,0.1,0.7,0.1,0.8,0.2
		c0.1,0.4,0.2,0.9,0.7,1c0.2,0.1,0.3,0.2,0.3,0.5v0.2l0.1,0.2c0.5,0.7,0.8,1.3,0.8,1.7c0,0.2-0.1,0.4-0.1,0.5l0,0.2l0,0.2
		c0.3,0.8,0.9,1.9,1.8,1.9c0.4,0,0.6-0.1,0.8-0.3c0.9-0.3,1-1.6,1-2.8l0-0.2c-0.3-0.9-0.5-1.2-0.5-1.4h0.2l0-0.6
		c0.1-0.7,0.2-1.3,0.3-2l0-0.2l-0.1-0.2c-0.5-1.4-1.2-2-2-2h-0.2c-0.4,0-0.6,0.3-1,0.9c-0.1-0.2-0.3-0.5-0.7-0.5
		c-0.1,0-0.2,0-0.5,0.1l-0.5-0.1c-0.9-0.1-1.2-0.3-1.3-0.4l-0.3-0.3l-0.4,0.1c-0.2,0.1-0.4,0.2-0.6,0.3l-0.4-0.1l-0.2,0.1
		c-0.9,0.4-1.5,0.6-1.8,0.7l-0.2,0l-0.1,0.1c-0.5,0.6-0.8,0.9-0.9,1h-0.2l-0.2,0.3c-0.2,0.4-0.4,0.5-0.4,0.6H9.1v0.6
		c0,0.5-0.1,0.8-0.4,1l-0.2,0.2l0,0.2c-0.1,0.8-0.2,1.8-0.5,2.9l0,0.5c0,0.3-0.1,0.7-0.3,1.3l0,0.2c0,0.2,0.1,0.4,0.2,0.7l-0.1,0.4
		l0.3,1c0,0.2,0,0.5-0.1,0.9l0,0.1l0.1,0.1c0.2,0.7,0.3,0.8,0.3,0.8c0,0.8,0.5,1.7,1.7,2.9c0.1,0.4,0.5,0.8,1.2,1.4l0.1,0.1
		c0.5,0.2,1.2,0.5,1.6,0.7l0.2,0.3l0.8-0.1l0.1,0c0,0,0.1,0,0.7,0.3l0.2,0.1l0.2-0.1c0.8-0.2,1.4-0.4,1.7-0.5l1.8-0.4l0.1-0.3
		c0.1-0.1,0.1-0.2,0.1-0.3c0.1,0,0.2,0,0.3,0.1l0.1,0c0.7,0,0.8-0.8,0.9-1.2l0.6-0.5v-0.3c0-0.1,0-0.2,0-0.2c0-0.1,0.1-0.2,0.4-0.5
		l0.1-0.2l0-0.2c0.1-1.2,0.2-1.5,0.2-1.5l0.2-0.2l-0.1-0.3C21.4,190.3,21.1,189,20.1,189z"/>
	<path d="M36.8,193v-0.3l-0.6,0.1l-0.6-0.1v0.2c-0.1,0-0.2,0-0.2,0c-0.2-1.1-0.4-1.4-0.5-1.6c-0.2-1.2-0.4-1.9-0.6-2.3v-0.2
		c0-0.5-0.2-1.1-0.7-2c0-1-0.2-1.8-0.6-2.4c-0.1-1-0.2-1.4-0.3-1.6c-0.3-1.1-0.5-1.7-0.6-2l-0.1-0.3c-0.1-0.6-0.2-0.9-0.4-1.3
		l-0.5-0.8l-0.1-0.1h0c-0.1-0.1-0.2-0.3-0.4-0.5l-0.2-0.2l-0.5,0c-0.5,0.1-0.9,0.3-1.2,0.5l-0.2,0.2v0.8l-0.2,0.1v0.4
		c0,0.5-0.2,1.1-0.5,1.9l-0.1,0.2l0.1,0.3c0,0.1,0,0.1,0,0.2c0,0,0,0,0,0h-0.1l-0.1,0.5c-0.1,0.7-0.3,1.9-0.7,3.5
		c-0.1,0.6-0.3,1.6-0.8,3.3c0,0,0,0.1-0.2,0.8c0,0,0,0.1-0.3,0.7l-0.1,0.2l0.1,0.3l-0.1,0.4c-0.1,0.4-0.2,0.8-0.4,1.1
		c-0.7,0-2.4,0.1-2.4,1.5l0.1,0.2c0.5,0.9,0.7,1.2,0.8,1.3l0.2,0.2l0.3,0c0.8,0,1.6,0,2.2,0h0.3c0,0,0,0,0.1,0.1l0.2,0.1l0.8-0.2
		c0.1,0,0.2,0,0.2-0.1l0.5,0.1l0.1,0c0.4-0.2,1.2-0.4,1.2-1.2c-0.1-1.1-0.5-1.6-1.1-1.6c0,0,0,0,0,0l0,0c-0.4-0.1-0.6-0.2-0.7-0.3
		L28,193v-0.5c0-0.5,0.1-0.9,0.3-1.3c0.7,0,1.4,0,2.1,0.1l0.3,0v0.1l0.6,0c0.9-0.1,1,0.3,1,0.5l0,0.7c0,0.1,0,0.2,0.1,0.3l-0.4,0.1
		c-0.8,0-1.3,0.4-1.3,1.1v0.5c0,0.2,0.1,0.7,0.6,1.1c0.2,0.2,0.4,0.3,0.9,0.3c0.6,0,1.5,0,2.7-0.1c0,0,0.1,0,0.4,0.1l0.2,0
		c1,0,1.8-0.5,2.3-1.4l0-0.2C38,194.1,37.9,193.4,36.8,193z M31.5,188.7c-0.2,0-0.5,0.1-1.1,0.2c-0.3,0-0.4-0.1-0.4-0.1c0,0,0,0,0,0
		l-0.1-0.1h-0.2c-0.5,0-0.6-0.2-0.7-0.3c0.2-0.4,0.3-0.9,0.3-1.4c0.2-0.3,0.4-0.9,0.6-2.6c0.1-0.4,0.2-0.8,0.2-1.1
		c0.1,0.5,0.3,0.8,0.5,1.2c0.1,1.1,0.3,1.6,0.4,1.8C31.2,187.4,31.3,188.2,31.5,188.7L31.5,188.7z"/>
	<path d="M51.2,192.7l-0.9-0.1l-0.2,0c-0.6,0.2-1.2,0.2-1.9,0.1l0,0l-0.3,0.1c0-0.2,0-0.3,0-0.4c-0.1-0.3-0.1-0.6-0.1-0.7l0-0.4
		l0.1-0.6l-0.1-0.2c0,0-0.1-0.2-0.2-1.5l0-0.6h0c0.1-0.3,0.1-0.6,0.2-0.9c0-0.4,0-0.6,0-0.7l0.1-0.5l0-0.1l0,0
		c-0.1-1.2-0.2-2.8-0.2-4.6l0-0.1h0.1l0.2-0.2c0.3-0.3,0.8-0.4,1.4-0.3c0.7,0.2,1,0.2,1.1,0.2c0,0,0,0,0,0l0.2,0
		c0.1,0,0.2,0,0.3-0.1v0.4l1.6-0.8l-0.4-2.2l-0.1-0.1c-0.4-0.4-1.2-0.7-2.6-0.7c0,0,0,0,0,0c-0.7,0.1-1.6,0.1-2.6,0.1h-0.2
		c0.1-0.2,0.2-0.3,0.3-0.4h0.1l0.2-0.2c1-0.9,1.3-1,1.3-1l0.2-0.1c1-0.8,1.4-1.3,1.4-1.9c-0.1-1.1-0.3-2.2-1.1-2.2h-0.6l-0.2,0.1
		c-0.2,0.1-0.3,0.2-0.3,0.3c-0.3,0.1-0.9,0.3-0.9,0.8l-0.7,0.3v0.4c0,0.3-0.1,0.4-0.3,0.5l-0.3,0.2v0.4c0,0.3-0.1,0.4-0.2,0.4
		l-0.1,0.1c-0.1,0.1-0.2,0.3-0.6,1.4l-0.1,0.3l0.2,0.3c0.1,0.2,0.2,0.3,0.3,0.4c-0.2,0-0.5,0.1-0.8,0.2c-1-0.3-1.1-0.3-1.3-0.3
		l-0.1,0c-0.2,0.1-0.4,0.1-0.4,0.1l-0.5-0.2l-0.2,0c-0.8,0.1-1.7,0.4-1.9,1.1c-0.2,0.3-0.2,0.7-0.3,1.5l0,0.4l0.3,0.2
		c0.3,0.1,0.6,0.2,0.9,0.2c0.1,0,0.4,0,0.8-0.1l1.1,0.3l0.1,0l0.1,0c0.4,0,0.7-0.1,1-0.1h0.6c0.2,0,0.4,0,0.5,0
		c-0.1,0.6-0.1,0.6-0.1,0.8l0.1,0.8c-0.1,0.4-0.1,0.6-0.1,0.7l0,0.1c0.1,0.3,0.1,0.4,0.1,0.6c-0.1,0.5-0.1,0.7-0.1,0.9H44v0.6
		c0,0.1,0,0.3-0.2,0.7l-0.2,0.5L44,187c-0.1,0.2-0.2,0.4-0.2,0.6c0,0.3,0.1,1,0.5,1.5H44v0.2h-0.2v1c0,0.1,0,0.2-0.1,0.3l-0.2,0.3
		l0.2,0.3v0.3c-0.3,0.3-0.4,0.7-0.4,0.9l0,0.2l0.1,0.2c0.1,0.3,0.2,0.4,0.4,0.5c-0.1,0-0.2,0-0.3,0.1c-1-0.2-1.9,0-2.8,0.4
		c-0.6,0.1-1,0.6-1,1.2v0.3c0,0.3,0.1,0.5,0.3,0.8v0.2l0.2,0.2c0,0,0.1,0,0.1,0.1v0.3h0.7c0.1,0,0.3,0,0.9-0.1
		c0.3,0.1,0.6,0.2,0.8,0.2c0.1,0,0.1,0,0.6-0.1v0.6l0.9-0.5l1,0l0.2,0.1l0.3-0.1c0.2-0.1,0.7-0.2,2.1-0.3c0.6,0.2,0.7,0.3,0.8,0.3
		h0.2l0.2-0.1c0.3-0.2,0.4-0.2,0.4-0.2c0.3,0,0.6,0,1.2,0.2c1.9,0,2.1-1.1,2.1-1.6v-0.2c0-0.4-0.2-0.8-0.5-1.2
		C52.1,193,51.6,192.7,51.2,192.7z M44.5,193.1C44.5,193.1,44.5,193.1,44.5,193.1C44.5,193.1,44.5,193.1,44.5,193.1L44.5,193.1z"/>
	<path d="M69.2,188c0-0.4,0-1.1,0.1-2.3c-0.1-0.5-0.1-0.8-0.2-1.1c-0.2-2-0.5-2.6-0.8-2.9c-0.4-1.2-0.8-1.8-1.4-2
		c-0.5-0.7-0.8-0.9-1.1-1c-1.5-0.3-2.1-0.5-2.3-0.7l-0.2-0.1l-0.4,0.1c-0.2,0-0.4,0-0.7-0.1l-0.2,0l-0.1,0.1
		c-0.2,0.1-0.2,0.1-0.3,0.1c-0.1,0-0.3-0.1-0.7-0.1l0,0l-0.7,0.1l-0.6-0.1l-0.1,0c-0.1,0-0.1,0-2.7,0.2l-1.2-0.1l-0.1,0.1
		c-0.8,0.3-1,0.9-1,1.3c0,0.6,0.6,1.1,1,1.4l0.2,0.1l0.7-0.2h1c0.4,0,0.8,0.1,0.8,1c-0.1,0.6-0.2,1.2-0.2,1.5v1.6
		c0,0.4,0,0.8,0.1,1.4c0,0.1-0.1,0.3-0.1,0.6c0,0.3,0.1,0.6,0.1,0.7c-0.1,0.4-0.1,0.6-0.1,0.8v0.2c0,0.3,0,0.7,0.1,1.1
		c0,0.1-0.1,0.3-0.2,0.6l-0.1,0.2l0.2,0.8l-0.3,1.2h0.3c0,0.1,0,0.2,0,0.4c0,0.2-0.6,0.3-0.8,0.3c-0.2,0-0.6,0-1.1-0.1
		c-1.3,0-2.1,0.8-2.1,2.3l0,0.2c0.3,0.8,0.9,0.9,1.3,0.9l0.2-0.1c0.4-0.2,0.5-0.3,0.7-0.3c0.8,0.3,1.6,0.5,2.4,0.5l0.6,0v-0.2
		c0.3-0.1,1-0.1,2.4-0.2c0.2,0.1,0.4,0.2,0.6,0.2h0.1c0.2,0,0.5,0,0.7-0.1l0.4,0.1l0.7-0.1l0.1-0.1c0.8-0.7,1.3-0.8,1.5-0.8h0.3
		l0.2-0.2c0.5-0.6,0.7-0.7,0.7-0.7l0.3-0.1l0.1-0.3c0.2-0.5,0.6-1.1,1.2-1.9l0.1-0.1l0-0.2c0.1-1.1,0.3-1.9,0.5-2.3l0.1-0.1l0-0.1
		C69.3,188.5,69.2,188.1,69.2,188z M66.3,187l-0.1,0.1v0.2c0,0.2,0,0.5,0.1,0.8l-0.1,0.5c-0.6,1.6-0.8,2.1-0.9,2.3
		c-0.3,0.4-0.5,0.6-0.6,0.9c-0.4,0.4-0.7,0.6-0.9,0.8c-0.5,0.1-1.1,0.2-1.6,0.6c-0.5,0-0.8-0.1-1-0.1c-0.4,0-0.4-0.1-0.4-0.2l0-0.5
		c0.2-0.9,0.2-1.3,0.2-1.5l0-0.1c-0.2-0.8-0.3-1.1-0.3-1.1c0,0,0,0,0,0l0-0.5L61,188h-0.3c0,0,0-0.2,0.3-1.2l0,0l-0.1-3.1
		c0.1-0.3,0.1-0.7,0.1-1v-1.9c0,0,0.2-0.2,0.8-0.3l0,0l0.5,0.1c1.9,0.5,2.6,0.9,2.8,1v0.5h0.6c0,0,0.1,0,0.1,0c0,0,0.1,0.1,0.1,0.3
		l-0.2,0.5l0.2,0.3c0.3,0.4,0.5,0.8,0.5,1l-0.1,0.1l0,0.2c0.1,1.1,0.1,1.8,0.2,2.2C66.5,186.7,66.4,186.8,66.3,187z"/>
	<path d="M85.3,187.9l0.1-0.5c-0.1-2.9-0.1-3.7-0.2-3.9l0-0.1c0-0.2-0.1-0.3-0.2-0.4c0-0.1-0.1-0.2-0.1-0.3h0.2l-0.5-0.9
		c0-0.1-0.1-0.3-0.3-0.4c-0.1-0.2-0.2-0.4-0.3-0.6l-0.1-0.1c-0.4-0.9-0.7-1.3-1.2-1.4c-0.6-0.5-1-0.8-1.4-0.9
		c-0.3-0.4-1-0.6-2.3-0.8l-0.1,0l-1,0.3l-0.4,0c-1.4,0.1-2.2,0.4-2.5,0.9c-0.3,0.1-0.6,0.2-0.8,0.4l-0.4,0.3l0.1,0.2c0,0,0,0,0,0.1
		c-0.7,0.9-0.9,1.2-1,1.4c-0.2,0.1-0.4,0.4-0.5,0.7l-0.1,0.2l0.1,0.4c-0.3,0.9-0.5,1.2-0.6,1.3l-0.1,0.2v1.3c0,0.1,0,0.2-0.1,0.3
		l-0.1,0.2l0,0.2c0,0.3,0.1,0.5,0.1,0.6c-0.1,0.5-0.1,0.6-0.1,0.7v0.3l0.3,0.7c0,0.6-0.1,1.2-0.1,1.7v0.4c0,0.1,0,0.5,0.2,1.4
		c0,0.3,0.1,0.9,1.1,2.2c0.1,0.4,0.3,1,1.1,1.4l1.1,1l0.2,0c0.6,0.1,0.7,0.2,0.7,0.2l0.2,0.1h0.6c0.2,0.1,0.5,0.2,0.8,0.2h0.8
		c0.1,0.1,0.2,0.1,0.3,0.2v0.8l0.7-0.7h0.5v-0.4c0.3-0.2,0.6-0.5,1-0.6h0.4c0.5,0,1.1-0.4,1.7-1.1c0.6-0.5,0.9-0.9,1.1-1.3
		c0.5-0.5,0.8-1.1,0.8-2l0.6-1l-0.2-0.7c0.2-0.8,0.2-1,0.2-1.1C85.4,188.5,85.4,188.2,85.3,187.9z M82.5,189.3l0,0.1
		c0,0-0.1,0.1-0.3,0.5L82,190l0,0.7c0,0,0,0.1-0.1,0.3l-0.2,0.4l-0.1,0.2c-0.2,0.6-0.5,1-1,1.3l-0.1,0.1c-0.3,0.4-0.9,0.7-1.6,0.9
		l-1.4-0.3c-0.4-0.5-0.8-0.7-1.2-0.8c-0.4-0.5-0.7-0.8-1-0.9c-0.2-0.4-0.4-0.8-0.5-1c-0.1-0.6-0.2-1-0.5-1.3
		c-0.1-0.7-0.3-1.3-0.6-1.8c0.2-0.5,0.2-0.6,0.2-0.7V187l-0.2-0.4l0.1-0.6l-0.1-0.5c0,0,0-0.1,0.1-0.2l0.1-0.2l0-0.6
		c0.3-1.4,0.6-1.7,0.7-1.8h0.3l0.2-0.3c0.8-1.4,1.1-1.5,1.1-1.5l0.2,0l0.1-0.2c0.4-0.5,0.7-0.7,1.1-0.7h0.7v0.1l0.4,0.1
		c0.9,0.2,1.4,0.4,1.8,0.5l0.2,0c0.2,0,0.5,0.3,0.8,1l0.2,0.4h0.1c0.2,0.4,0.3,0.6,0.4,0.7c0,0,0,0,0,0l0,0.3l-0.1,1.2
		c-0.2,0.1-0.3,0.3-0.3,0.6v0.4l0,0.1l0,0v0.3h0.7c0.1,0,0.2,0,0.3-0.1c0.1,0.4,0.1,0.8,0.2,1.2c-0.3,0.9-0.4,1.2-0.4,1.4
		C82.5,188.7,82.5,189,82.5,189.3z"/>
	<path d="M100.6,189.8c-0.3-0.7-0.5-1.2-0.8-1.6c-0.3-0.8-0.6-1.2-0.9-1.6l-0.1-0.1c-0.8-0.4-1.3-0.7-1.7-1
		c-0.9-0.4-2.3-0.7-4.2-0.9c-0.3-0.3-0.6-0.5-1-0.6c-0.4-0.4-0.7-0.9-0.7-1.5c0.1-0.5,0.2-0.9,0.3-1.2c1.2-1.2,1.6-1.3,1.7-1.3
		c0.5,0,1,0.1,1.5,0.4l0.3,0.1l0.3-0.1l0.2,0l0.1,0.1c0.7,0.4,1.2,0.8,1.3,1c0.3,1.6,0.6,2.5,0.9,2.8l-0.1,0.4h0l0,0.1l1.3,0
		l0.2-0.1c0.5-0.3,0.8-0.7,0.9-1.2l0-0.1l0,0c-0.1-1-0.2-1.6-0.4-1.9c0.2-1,0.3-1.8,0.3-2.5c0-0.7-0.7-1.1-1.3-1.4l-0.2,0l-0.1,0
		c-0.3,0-0.6,0.2-1,0.6c-1.2-0.4-2-0.6-2.6-0.6c-0.1,0-0.4,0-0.6,0.1c-0.6-0.1-1-0.1-1.3-0.1c-0.8,0-1.8,0.5-3.1,1.6l-0.1,0.1
		c-0.9,1.6-1.3,2.7-1.3,3.5c0.1,0.6,0.1,1.1,0.2,1.4h-0.2l0.5,0.7c0,0,0.1,0.1,0.1,0.1l0.1,0.2c1.1,1.5,1.6,1.9,2,2
		c0.2,0.1,0.4,0.2,0.6,0.3l0.1,0.1l0.9,0c0,0,0.2,0.1,1,0.5l0.2,0.1l1.2-0.3c1.9,0.8,1.9,1.3,1.9,1.4c0,0,0,0.1-0.1,0.2l-0.1,0.2
		l0.1,0.4c0,0.2,0,0.4-0.1,0.6l0,0.2c-0.1,0.2-0.3,0.4-0.5,0.6l-0.1,0.1c-0.1,0.1-0.2,0.2-0.3,0.2c-0.9,0.5-1.6,0.8-2.3,0.8
		l-0.1-0.3h-0.4c-0.1,0-0.2,0-0.7,0.2c-0.7,0-1.2-0.5-1.7-1.6l-0.1-0.1c-0.3-0.4-0.4-0.5-0.4-0.5c0,0,0,0,0,0c0-0.4-0.2-1.2-1.3-1.5
		l-0.1,0c-0.2,0-0.4,0.1-0.7,0.2l-0.5,0.3l0.1,0.3c-0.1,0.2-0.1,0.4-0.1,0.7v0.2c0,0.2,0,0.4,0.1,0.7c-0.3,1.5-0.3,1.9-0.3,2.1
		c0,0.1,0,0.5,0.1,0.8l-0.1,1c0,0.7,0.5,1.2,1.3,1.2h0.8v-0.3l0.5-0.6c1.5,0.9,1.6,0.9,1.8,0.9h0.4c0.3,0,0.6,0,1.1-0.1
		c0.4,0.1,0.7,0.2,1,0.2c0,0,0,0,0,0c1.8-0.2,2.7-0.5,3-0.9c0.4-0.1,0.8-0.2,1-0.4l0.5,0.3v-1c0-0.1,0.1-0.2,0.2-0.4
		c0.4-0.4,0.8-1.1,1.2-2.2l0-0.2c0-0.3,0-0.7-0.1-1.3l0.1-0.4L100.6,189.8z"/>
	<path d="M125.7,188c0-0.4,0-1.1,0.1-2.3c-0.1-0.5-0.1-0.8-0.2-1.1c-0.2-2-0.5-2.6-0.8-2.9c-0.4-1.2-0.8-1.8-1.4-2
		c-0.5-0.7-0.8-0.9-1.1-1c-1.2-0.3-2-0.5-2.3-0.7l-0.2-0.1l-0.4,0.1c-0.2,0-0.4,0-0.7-0.1l-0.2,0l-0.1,0.1c-0.2,0.1-0.2,0.1-0.3,0.1
		c-0.1,0-0.3-0.1-0.7-0.1l0,0l-0.7,0.1L116,178l-0.1,0c-0.1,0-0.1,0-2.7,0.2l-1.2-0.1l-0.1,0.1c-0.8,0.3-1,0.9-1,1.3
		c0,0.5,0.3,0.9,1,1.4l0.2,0.1l0.7-0.2h1c0.4,0,0.8,0.1,0.8,1c-0.1,0.6-0.2,1.2-0.2,1.5v1.6c0,0.4,0,0.8,0.1,1.4
		c0,0.1-0.1,0.3-0.1,0.6c0,0.3,0.1,0.6,0.1,0.7c-0.1,0.4-0.1,0.6-0.1,0.8v0.2c0,0.3,0,0.7,0.1,1.1c0,0.1-0.1,0.3-0.2,0.6l-0.1,0.2
		l0.2,0.8l-0.3,1.2h0.3c0,0.1,0,0.2,0,0.4c0,0.2-0.6,0.3-0.8,0.3c-0.2,0-0.6,0-1.1-0.1c-1.3,0-2.1,0.8-2.1,2.3l0,0.2
		c0.3,0.8,0.9,0.9,1.3,0.9c0,0,0,0,0,0l0.2-0.1c0.4-0.2,0.5-0.3,0.7-0.3c0.8,0.3,1.6,0.5,2.4,0.5l0.6,0v-0.2c0.3-0.1,1-0.1,2.4-0.2
		c0.2,0.1,0.4,0.2,0.6,0.2h0.1c0.2,0,0.5,0,0.7-0.1l0.4,0.1l0.7-0.1l0.1-0.1c0.8-0.7,1.3-0.8,1.5-0.8h0.3l0.2-0.2
		c0.5-0.6,0.7-0.7,0.7-0.7l0.3-0.1l0.1-0.3c0.2-0.5,0.6-1.1,1.2-1.9l0.1-0.1l0-0.2c0.1-1.1,0.3-1.9,0.5-2.3l0.1-0.1l0-0.1
		C125.7,188.5,125.7,188.1,125.7,188z M122.7,187l-0.1,0.1v0.2c0,0.2,0,0.5,0.1,0.8l-0.1,0.5c-0.6,1.6-0.8,2.1-0.9,2.3
		c-0.3,0.4-0.5,0.6-0.6,0.9c-0.4,0.4-0.7,0.6-0.9,0.8c-0.5,0.1-1.1,0.2-1.6,0.6c-0.5,0-0.8-0.1-1-0.1c-0.4,0-0.4-0.1-0.4-0.2l0-0.5
		c0.2-0.9,0.2-1.3,0.2-1.5l0-0.1c-0.2-0.9-0.3-1.1-0.3-1.1c0,0,0,0,0,0l0-0.5l0.2-1.2h-0.3c0,0,0-0.2,0.3-1.2l0,0l-0.1-3.1
		c0.1-0.3,0.1-0.7,0.1-1v-1.9c0,0,0.2-0.2,0.8-0.3l0,0l0.5,0.1c1.9,0.5,2.6,0.9,2.8,1v0.5h0.6c0,0,0.1,0,0.1,0c0,0,0.1,0.1,0.1,0.3
		l-0.2,0.5l0.2,0.3c0.3,0.4,0.5,0.8,0.5,1l-0.1,0.2l0,0.2c0.1,1.1,0.1,1.8,0.2,2.2C122.9,186.7,122.8,186.8,122.7,187z"/>
	<path d="M141.8,188.8v-0.2h-1.3c-0.6,0-1.1,0.4-1.5,1.2l-0.1,0.9c0,0.1,0,0.3-0.1,0.7l0,0.2l0,0l-0.1,0.3c-0.1,0.4-0.2,0.6-0.3,0.7
		c-0.1,0-0.2,0.1-0.3,0.1h-1.2v0.1c-0.1,0-0.1,0-0.2-0.1c-0.3-0.3-0.9-0.5-2.3-0.7l-0.3,0l-0.2,0.2c-0.1,0.1-0.1,0.1-0.2,0.2
		c0-0.1,0-0.1,0-0.2c0-0.1,0-0.2,0.2-0.6l0.4-0.9h-0.6c0,0,0-0.1-0.1-0.2c0-0.7,0.1-1.3,0.1-1.7v-0.7c0-0.2,0.5-0.2,0.7-0.2h0.5
		c0.1,0,0.4,0,0.6,0.5c0,1.2,0.4,2,1.1,2.4l0.8,0.1l0.2-0.1c0.7-0.5,1-1,1-1.5c-0.1-1.7-0.1-2.3-0.2-2.5c0-0.2,0.1-0.9,0.2-2.6
		l0-0.2c-0.1-0.4-0.5-1.5-1.2-1.5c-0.4,0-0.7,0.1-0.9,0.4c-0.8,0.3-0.8,1.6-0.8,2c0,0,0,0.2-0.4,0.3h-0.2l-0.9-0.4v0.4
		c-0.1-0.1-0.3-0.1-0.4-0.3c0-0.2,0-0.5,0.1-0.9l0,0l-0.1-0.6c0.1-0.7,0.1-0.8,0.1-1c0-0.1,0-0.2-0.1-1.2c0-0.1,0-0.1,0-0.1h0.6
		v-0.2c0.7,0,1.1,0.1,1.3,0.1h0.2l0.2-0.1c0.2-0.1,0.4-0.2,0.6-0.3c0.4,0.5,0.9,0.6,1.2,0.6h0.2c0.2,0,0.4-0.1,0.6-0.1
		c1.4,0.5,1.5,0.9,1.5,0.9v0.1l-0.4,1.2l0,0.5l0.1,0.2c0.2,0.2,0.4,0.4,0.6,0.5c0.5,0.5,0.8,0.7,1.1,0.7h0.1c0.4,0,1.1-0.2,1.2-1.5
		l0-0.5c-0.4-2.4-0.6-3.2-0.8-3.5c0-0.2-0.1-0.4-0.6-0.9c-0.4-0.4-1.1-0.6-2.3-0.8l-0.7-0.1v0.4c-0.1,0-0.3-0.1-0.5-0.2l-0.1,0
		l-4.5,0.3c-0.1,0-0.3-0.1-0.8-0.1c-0.2,0-0.5,0-0.8,0.1c-0.8-0.1-1.4-0.1-2-0.1c-1.1,0-1.7,0.3-2,0.9l-0.1,0.5
		c0,0.7,0.4,1.3,1.1,1.6l0.3,0.1l0.3-0.1c0.6-0.3,0.8-0.3,0.8-0.3c0.4,0,0.7,0,1.1,0.1c0.2,0,0.4,0,0.4,0.6v1.9
		c0,0.7-0.1,1.1-0.2,1.2l-0.1,0.2l0.1,0.5v0.3l-0.4,0.9h0.5c0,0.1,0,0.1,0,0.2c-0.1,0.5-0.2,1.2-0.2,2.2c0,0.2,0.1,0.5,0.1,0.8
		c0,0,0,0.1-0.2,0.5l-0.1,0.1l0.1,2.8c0,0,0,0,0,0c-0.2,0-0.6,0-1.1-0.2l-0.1,0c-2,0.2-2.3,1.4-2.3,2v0.4l0.1,0.1
		c0.4,0.6,1.1,0.9,2.1,0.9c0.2,0,0.3,0,0.5-0.2c0.1,0.1,0.2,0.2,0.4,0.3l0.1,0.1h0.9l0.2-0.5c0.3,0.1,0.3,0.1,0.4,0.1l0.6-0.2
		c0.5,0.2,1.4,0.3,3.2,0.4c0.3,0,0.7-0.1,1.1-0.3c0.5,0.2,0.9,0.2,1.3,0.2h0.3l0.3-0.2l-0.1,0.2h1.1c0.3,0,0.5-0.1,0.9-0.4l0.4,0.1
		c0.4,0,0.6-0.3,0.8-0.5l0.1-0.1l0-0.2c0.2-1.7,0.4-3.1,0.7-4.2l0-0.1l0,0C142.6,189.8,142.3,189.1,141.8,188.8z"/>
	<path d="M160.7,194.5l0.1-0.4c0-0.6-0.1-1-0.2-1.4l0.1-1.3l0-0.1c-0.2-1-0.3-1.9-0.6-2.6l0.1-0.5l-0.1-0.2
		c-0.1-0.3-0.5-1.1-1.3-1.1h-0.2l-0.2,0.1c-0.5,0.3-0.7,0.7-0.7,1.2l0.1,0.6l-0.4,1.3l0.2,0.8l0,0l-0.1,0.3l0.1,0.2
		c0,0.1,0,0.4-0.1,0.9l0,0.4c0,0.1,0,0.4-0.7,0.6h-0.2c-0.1,0-0.3-0.1-0.5-0.2l-0.9-0.6v0.4l-0.1,0c-0.2,0.1-0.3,0.1-0.5,0.2l0-0.2
		l-0.6,0.5c-0.1,0-0.1,0.1-0.2,0.1l-0.2,0.2c0,0,0,0-0.1,0.1H153c-0.3,0-0.5,0-0.5-0.1c-0.1-0.4-0.1-0.6-0.2-0.9l0.1-0.3l-0.2-1.2
		l0.1-0.9c-0.2-1.3-0.2-1.6-0.2-1.7c0,0,0-0.1,0.1-0.6l0-0.1c0-0.8,0.1-2,0.1-3.3l0-0.2l-0.1-0.2c-0.1-0.2-0.2-0.3-0.2-0.4
		c0.3-0.8,0.3-0.8,0.3-0.9c0-0.5-0.1-1-0.3-1.4c0.1-0.6,0.2-0.9,0.2-1.1c0.1,0,0.4-0.1,1-0.1c0.6,0.2,0.7,0.2,0.8,0.2l1-0.3
		c0.1,0,0.2,0,0.3,0h0.2c0.7,0,1-0.5,1.1-0.7l0-0.4l-0.1-0.2c-0.3-0.5-0.9-0.9-1.9-1.3l-0.2-0.1l-0.2,0c-0.5,0.1-0.6,0.1-0.6,0.1
		h-0.9c-0.4,0-0.6-0.1-0.7-0.1l-0.2-0.1l-0.2,0c-0.3,0-0.6,0.1-0.7,0.1h-0.2l-0.2-0.1l-0.6,0.2c-0.1,0-0.1,0-0.2-0.1l-0.2,0
		c-0.7,0-1.4,0-2.3,0.1c-0.3-0.1-0.5-0.1-0.7-0.1c-0.5,0-1,0.3-1.3,1l-0.1,0.1l0,0.2l0,0c-0.1,0.2-0.1,0.4-0.1,0.7
		c0,0.3,0.1,0.7,0.7,0.9l0.1,0.1l1.3-0.1c0.2,0.1,0.4,0.1,0.7,0.1h0.3l0.2-0.3c0.1-0.1,0.2-0.2,0.2-0.3h0.1c0.2,0,0.3,0,0.5,0.4
		l-0.1,0.3l0.1,0.2c0.2,0.4,0.2,0.6,0.3,0.7c0,0.2,0,0.6-0.1,0.9l0,0.2l0.1,0.2c0.1,0.1,0.1,0.2,0.1,0.3v0.5c0,0.1,0,0.5-0.2,1.7
		c0.1,1.8,0.2,2.8,0.2,2.8c-0.1,0.3-0.1,0.8-0.1,1.3v0.9l-0.1,0.5l0,0.1c0,0.5,0.1,1,0.1,1.4c0,0.2,0,0.4,0,0.5
		c-0.1,0-0.1-0.1-0.2-0.1l-0.2-0.1l-0.2,0c-0.6,0.1-1.1,0.2-1.5,0.4l-0.4-0.3h-0.2c-0.5,0-1.3,0.2-1.6,1.8l0,0.1l0,0.2
		c0.2,0.7,0.5,1.1,1,1.1l0.1,0c0.3-0.1,0.4-0.1,0.5-0.1h1.6c0.8,0,1.7-0.1,2.5-0.3h0c0.2,0.2,0.4,0.3,0.6,0.3l0.2,0.1l0.7-0.2
		c0.3,0,0.6,0.1,0.8,0.2l0.2,0.1l0.2-0.1c0.2-0.1,0.5-0.1,0.8-0.2l0,0.1l1.1,0l0.2,0c0.4-0.1,0.7-0.2,0.8-0.3
		c0.5,0.2,1.2,0.3,2.1,0.4l0.3,0l0.2-0.3c1.4-0.1,1.7-0.7,1.7-1.2C160.8,194.9,160.8,194.7,160.7,194.5z"/>
</g>
<g>
	<path d="M21.7,214.4h-1.2c-0.8,0-1.2,0.8-1.5,1.4l-0.1,0.9c0,0.2,0,0.5-0.1,0.9l0,0.2l0,0.1l-0.1,0.4c-0.1,0.4-0.2,0.7-0.3,0.8
		c-0.1,0-0.1,0.1-0.2,0.1h-1.1v0.1c0,0-0.1,0-0.1-0.1c-0.3-0.3-0.9-0.6-2.2-0.8l-0.3-0.1l-0.2,0.3c0,0,0,0-0.1,0.1
		c0-0.1,0-0.2,0-0.3c0-0.1,0-0.3,0.2-0.7l0.3-0.8h-0.5c0-0.1,0-0.2-0.1-0.3c0-0.8,0.1-1.5,0.1-2v-0.8c0-0.2,0-0.3,0.7-0.3h0.4
		c0.1,0,0.3,0,0.5,0.6c0,1.4,0.3,2.3,1,2.7l0.1,0.1h0.7l0.2-0.2c0.6-0.6,0.9-1.1,0.9-1.7c-0.1-2-0.1-2.6-0.2-2.9
		c0-0.2,0.1-0.9,0.2-3l0-0.1c-0.2-0.9-0.5-1.7-1.2-1.7c-0.4,0-0.7,0.2-0.9,0.5c-0.7,0.4-0.7,1.7-0.7,2.2c0,0.1,0,0.3-0.5,0.4h-0.1
		l-0.9-0.6v0.4c-0.1-0.1-0.2-0.2-0.3-0.3c0-0.2,0-0.6,0.1-1.1l0,0l-0.1-0.6l0-0.1c0.1-0.9,0.1-1,0.1-1.1c0-0.1,0-0.3-0.1-1.4
		c0-0.1,0-0.2,0.1-0.3h0.5v-0.2c0.6,0,1,0.1,1.1,0.1h0.2l0.2-0.2c0.1-0.1,0.3-0.2,0.4-0.3c0.4,0.6,0.9,0.7,1.2,0.7h0.1
		c0.2,0,0.3,0,0.6-0.1c1,0.4,1.4,0.9,1.4,1.1v0.2l-0.4,1.5l0,0.4l0.1,0.1c0.2,0.3,0.3,0.5,0.6,0.6c0.4,0.5,0.7,0.9,1.2,0.9
		c0.5,0,1-0.3,1.2-1.6l0-0.6c-0.3-2.3-0.5-3.5-0.8-4c0-0.2-0.1-0.4-0.5-1c-0.4-0.4-1.1-0.7-2.2-0.9l-0.7-0.1v0.4
		c-0.1,0-0.2-0.1-0.4-0.2l-0.1-0.1l-4.3,0.3c-0.2-0.1-0.4-0.1-0.8-0.2c-0.2,0-0.5,0-0.8,0.1c-0.7-0.1-1.3-0.1-1.8-0.1
		c-1,0-1.7,0.3-2,1l0,0.5c0,0.8,0.3,1.4,1,1.7l0.3,0.2l0.3-0.2c0.5-0.3,0.7-0.3,0.7-0.3c0.3,0,0.6,0,1,0.1c0.1,0,0.3,0,0.3,0.8v2.2
		c0,0.8-0.1,1.2-0.2,1.4l-0.1,0.1l0.1,0.6v0.4l-0.4,0.9h0.4c0,0.1,0,0.2,0.1,0.3c-0.1,0.5-0.2,1.4-0.2,2.5c0,0.3,0.1,0.6,0.1,1
		c0,0,0,0.2-0.2,0.7l0,0.1l0.1,3.1c0,0,0,0.1,0,0.1c-0.2,0-0.4,0-0.9-0.2l0,0l-0.2,0c-1.9,0.3-2.2,1.5-2.2,2.2l0,0.3l0.1,0.2
		c0.2,0.5,0.8,1.1,2,1.1c0.2,0,0.3,0,0.5-0.1c0.1,0.1,0.2,0.2,0.3,0.3l0.2,0.1h1l0.2-0.6c0.2,0.1,0.3,0.1,0.3,0.1l0.6-0.2
		c0.5,0.2,1.4,0.4,3,0.5c0.3,0,0.6-0.1,1.1-0.4c0.5,0.2,0.9,0.3,1.2,0.3h0.3l0.3-0.2l-0.1,0.2h1c0.3,0,0.5-0.1,0.9-0.4l0.3,0.1
		c0.4,0,0.6-0.3,0.8-0.7l0.1-0.2c0.2-2,0.4-3.6,0.6-5c-0.1-1.2-0.3-1.9-0.8-2.2V214.4z"/>
	<path d="M39.4,215.8c-0.3-0.8-0.5-1.4-0.7-1.8c-0.3-0.9-0.6-1.4-0.9-1.8l-0.1-0.1c-0.7-0.4-1.2-0.8-1.6-1.1c-0.9-0.4-2.2-0.8-4-1.1
		c-0.3-0.3-0.6-0.5-0.9-0.7c-0.4-0.5-0.7-1.1-0.7-1.8c0.2-1,0.3-1.3,0.3-1.4c1.1-1.4,1.5-1.4,1.5-1.4c0.4,0,0.9,0.1,1.4,0.4l0.3,0.2
		l0.3-0.2l0.1,0l0.1,0.1c0.7,0.4,1.1,0.9,1.2,1.3c0.3,2.2,0.6,2.9,0.9,3.3l-0.1,0.3h0l0,0.1H38l0.2-0.1c0.4-0.3,0.7-0.7,0.8-1.4
		l0-0.1l0,0c-0.1-1.2-0.2-1.8-0.4-2.1c0.2-1.1,0.3-2.1,0.3-3c0-0.5-0.4-1-1.1-1.5l-0.2-0.1h-0.2c-0.3,0-0.6,0.2-0.9,0.7
		c-1.1-0.5-1.9-0.7-2.4-0.7c-0.1,0-0.3,0-0.6,0.1c-0.5-0.1-0.9-0.1-1.2-0.1c-0.8,0-1.8,0.6-3,1.8l-0.1,0.1c-0.8,1.8-1.2,3.1-1.2,3.9
		c0.1,0.8,0.2,1.3,0.3,1.8h-0.1l0.3,0.6c0,0,0,0.1,0.1,0.1l0.1,0.2c1,1.8,1.5,2.2,1.9,2.3c0.1,0.1,0.3,0.3,0.5,0.4l0.1,0.1l0.8,0
		c0.1,0,0.3,0.2,0.8,0.6l0.2,0.2l1.1-0.3c1.6,0.9,1.8,1.5,1.8,1.7c0,0,0,0.1-0.1,0.3l-0.1,0.2l0.1,0.4c0,0.3,0,0.6-0.1,0.9l0,0.2
		c-0.1,0.3-0.3,0.5-0.5,0.7l-0.1,0.1c-0.1,0.1-0.2,0.2-0.3,0.3c-0.8,0.6-1.5,0.9-2,0.9l-0.1-0.4h-0.4c-0.1,0-0.2,0-0.7,0.2
		c-0.7,0-1.2-1-1.5-1.8l-0.1-0.1c-0.4-0.5-0.4-0.7-0.4-0.7c0-0.8-0.4-1.3-1.2-1.6l-0.2,0c-0.2,0-0.4,0.1-0.7,0.3l-0.4,0.3l0.1,0.3
		c-0.1,0.3-0.1,0.6-0.1,0.8v0.2c0,0.2,0,0.5,0.1,0.8c-0.2,1.3-0.3,2.1-0.3,2.4c0,0.2,0,0.5,0.1,1l-0.1,1.1c0,0.8,0.5,1.3,1.3,1.3
		h0.8v-0.3l0.4-0.7c1.3,1,1.4,1,1.7,1h0.4c0.3,0,0.6,0,1-0.1c0.4,0.2,0.7,0.2,1,0.2c0,0,0,0,0,0c1.7-0.2,2.6-0.6,2.9-1.1
		c0.4-0.1,0.7-0.3,0.9-0.5l0.4,0.3l0-1c0,0,0-0.1,0.2-0.6c0.4-0.5,0.7-1.3,1.1-2.5l0-0.1c0-0.3,0-0.8-0.1-1.5l0.1-0.4L39.4,215.8z"
		/>
	<path d="M53.1,219.5H53c-0.2-0.1-0.4-0.2-0.7-0.3c0.3-0.2,0.3-0.5,0.3-0.7v-0.8h-0.1v-0.1c0-0.1,0.1-0.2,0.1-0.3v-0.2
		c0-0.4-0.3-0.7-0.7-0.8h-0.3l-0.2,0.1c-0.1,0-0.1,0.1-0.2,0.1c0-0.1,0-0.1,0-0.2v-0.7c0-0.4,0-0.7-0.1-1.1c0-0.3,0.1-0.7,0.1-1.1
		v-2c0-0.2,0-0.3,0.1-0.5l0.1-0.2l0-0.2c0-0.2,0-0.4-0.1-0.8l-0.3-2.1c0-0.3,0-0.6,0.1-1l0-0.1l0-0.1c-0.1-0.2-0.1-0.3-0.1-0.3
		c0.4-1,0.7-1.2,0.6-1.2c0.5,0,0.6,0.2,0.7,0.4l0.1,0.1c0.6,0.7,0.9,1.5,0.9,2.6l-0.2,2h0.2c-0.1,0.6-0.1,0.5-0.1,0.5l-0.1,0.2
		l0,0.2c0.2,1.6,1,1.9,1.5,1.9h0.2l0.1-0.1c1-0.6,1.4-1.1,1.4-1.8l-0.1-1.6c0.1-0.2,0.1-0.5,0.1-0.9l-0.2-0.8c0-0.1,0-0.3,0.2-0.7
		l0.1-0.2l0-0.2c-0.3-1-0.3-1.2-0.3-1.2c0,0,0-0.2,0.3-0.6l0.1-0.1v-0.2c0-0.2-0.1-0.6-0.5-0.9c-0.4-1-1.3-1.6-2.5-1.7
		c-0.1-0.1-0.3-0.1-0.5-0.2h-0.4l-0.2,0.1c-0.1,0.1-0.1,0.1-0.2,0.1c-0.3-0.1-0.6,0-0.9,0.1l-0.4-0.3l-0.3,0.1
		c-0.5,0.2-0.6,0.2-0.6,0.2l-0.3,0c0,0-0.1,0-0.5-0.1l-0.2,0c-0.3,0-0.8,0-1.4,0.1c-0.1,0-0.3,0-0.6-0.1l-0.2,0l-0.2,0.1
		c-0.1,0.1-0.2,0.1-0.2,0.1c0,0-0.1,0-0.3-0.1l-0.2-0.1l-0.2,0.1c-0.2,0.1-0.8,0.3-1,0.7c-0.5,0.3-0.8,1.1-1,3.7l0,0.1l0.1,0.1
		c0,0,0,0.1,0,0.1c0,0.1,0,0.3-0.2,0.9l-0.2,0.8h0.3c0,0,0,0.1,0,0.1c0,0.1,0,0.5-0.1,1.4l0,0.1l0,0.1c0.1,0.5,0.2,0.7,0.2,0.9
		c0,0.1,0,0.1-0.1,0.3l0,0.2c0,0.8,0.5,1.3,1.3,1.3h0.5l0.5-0.3l0.1-0.2c0.4-1.3,0.6-2.1,0.6-2.6c0-0.8-0.1-1.7-0.3-2.7
		c0.2-1.7,0.8-1.7,1-1.7h0.2l0.2-0.1c0.4-0.3,0.6-0.4,0.6-0.4l0.1,0.1h0.1c0.1,0.1,0.2,0.6,0.4,1.7c-0.2,0.8-0.3,1.1-0.3,1.3v0.4
		c0,0.2,0,0.7,0.1,1.2c0,0,0,0.2-0.1,1.4v1.2c0,0.3,0,0.7,0.1,1.2l-0.2,0.7l0.1,0.2c0,0.8-0.1,1.5-0.1,2v0.1l-0.4,0.9h0.4
		c0,0.2,0,0.4-0.1,0.8l0,0.2l0.1,0.2c0.1,0.3,0.2,0.4,0.2,0.5c-0.1,0.3-0.1,0.5-0.2,0.6c-0.3,0-0.6-0.1-0.9-0.1
		c-0.4,0-1,0.1-1.5,0.2c-0.9,0-1.4,0.6-1.4,1.5l0,0.7l0.1,0.2c0.2,0.4,0.7,1.4,1.6,0.7c0.4,0.3,0.6,0.3,0.8,0.3c0.3,0,0.6-0.1,1-0.4
		c0.3,0.1,0.6,0.2,0.8,0.2H49c0.3,0,0.6,0,0.9-0.1c0.5,0,0.9,0.1,1.2,0.2l0.2,0c0.2,0,0.4-0.1,0.6-0.2c0.1,0.2,0.4,0.3,0.7,0.3
		c0.3,0,0.5-0.2,0.6-0.4l0.1,0.1l0.3,0c0.1,0,0.2,0,0.2,0c0.5,0.4,0.8,0.5,1.1,0.5l0.3,0c0.5-0.1,0.9-0.3,1.3-0.8l0.1-0.2v-0.6
		l-0.1-0.2C55.2,220.2,54.1,219.5,53.1,219.5z"/>
	<path d="M72.7,219.5v-0.4l-0.6,0.2l-0.6-0.2v0.3c0,0-0.1,0-0.1,0c-0.2-1.3-0.4-1.7-0.4-1.9c-0.2-1.5-0.3-2.2-0.6-2.6l0-0.3
		c0-0.5-0.2-1.3-0.7-2.2c0-1.2-0.2-2.1-0.6-2.8c-0.1-1.1-0.2-1.6-0.3-1.8c-0.3-1.2-0.5-2-0.6-2.4l-0.1-0.3c-0.1-0.6-0.2-1-0.3-1.4
		l-0.5-1l-0.1-0.1h0c-0.1-0.1-0.2-0.3-0.3-0.5l-0.2-0.3l-0.6,0c-0.5,0.1-0.9,0.3-1.2,0.6l-0.2,0.2v0.9c0,0,0,0,0,0l-0.2,0.1v0.4
		c0,0.6-0.2,1.4-0.5,2.2l0,0.1l0.1,0.4c0,0.1,0,0.1,0,0.1c0,0,0,0.1,0,0.1H64l-0.1,0.5c-0.1,0.9-0.3,2.2-0.7,4.1
		c-0.1,0.7-0.3,1.9-0.7,3.8c0,0,0,0.2-0.2,1c0,0,0,0.1-0.3,0.8l0,0.1l0,0.3l-0.1,0.5c-0.1,0.5-0.2,0.9-0.4,1.3
		c-1.5,0.1-2.3,0.6-2.3,1.6l0,0.2c0.4,1.1,0.6,1.3,0.7,1.5l0.2,0.2l0.3,0c0.8,0,1.5,0,2.1,0l0.2,0c0,0,0,0,0.1,0.1l0.2,0.2l0.3-0.1
		c0.4-0.1,0.6-0.2,0.7-0.2l0.5,0.1L65,223c0.3-0.1,1.1-0.5,1.1-1.2c0-0.4-0.1-1.8-1.1-1.8h0c-0.6-0.2-0.7-0.4-0.7-0.4c0,0,0,0,0-0.1
		l0.1-0.1v-0.5c0-0.6,0.1-1.1,0.3-1.6c0.6,0,1.2,0,2,0.1l0.2,0v0.1l0.7-0.1c0.6-0.1,0.8,0.1,0.9,0.7l0,0.8c0,0.2,0.1,0.4,0.1,0.5
		l-0.3,0.1c-0.6,0-1,0.3-1.1,0.7l-0.2,0.1l0.1,0c0,0.1-0.1,0.3-0.1,0.4v0.6c0,0.4,0.2,0.8,0.6,1.2l0,0c0.2,0.2,0.4,0.3,0.9,0.4
		c0.5,0,1.4,0,2.6-0.1c0,0,0.1,0,0.4,0.1l0.2,0c1,0,1.8-0.5,2.2-1.6l0-0.2C73.9,220.4,73.5,219.8,72.7,219.5z M67.6,214.6
		c-0.2,0-0.4,0.1-1,0.2c-0.2,0-0.3-0.1-0.3-0.1c0,0,0,0,0,0l-0.1-0.1H66c-0.4,0-0.6-0.1-0.6-0.5c0.2-0.5,0.3-1.1,0.3-1.7
		c0.2-0.3,0.4-1,0.5-2.9c0.1-0.4,0.1-0.8,0.2-1.1c0.1,0.4,0.3,0.8,0.4,1.2c0.1,1.2,0.3,1.8,0.4,2.1c0,1.2,0.2,2.1,0.3,2.7l0,0
		L67.6,214.6z"/>
	<path d="M91.4,220.6c0-0.7-0.1-1.2-0.2-1.6l0.1-1.6l0-0.1c-0.1-1.2-0.3-2.2-0.6-3l0.1-0.5l-0.1-0.2c-0.1-0.3-0.5-1.3-1.3-1.3h-0.2
		l-0.2,0.2c-0.4,0.4-0.6,0.8-0.6,1.3l0.1,0.8l-0.4,1.5l0.2,0.9c0,0,0,0,0,0.1l-0.1,0.2l0.1,0.2c0,0.1-0.1,1-0.1,1.5
		c0,0.3-0.1,0.6-0.6,0.8h-0.2c0,0-0.1,0-0.4-0.2l-1-0.8v0.5l-0.1,0c-0.1,0.1-0.2,0.1-0.3,0.2l0-0.3l-1,1.1c0,0,0,0-0.1,0.1h-0.5
		c-0.3,0-0.4,0-0.5-0.1c-0.1-0.5-0.1-0.8-0.2-1.1l0.1-0.4l-0.2-1.4l0.1-1c-0.2-1.5-0.2-1.9-0.2-2c0,0,0-0.2,0.1-0.8
		c0-1,0-2.3,0.1-3.8l0-0.1l-0.1-0.1c-0.1-0.3-0.2-0.5-0.2-0.5c0.3-1,0.3-1,0.3-1.1c0-0.6-0.1-1.1-0.3-1.6c0.1-0.6,0.2-1.1,0.2-1.4
		c0.1,0,0.4-0.1,0.9-0.1c0.5,0.2,0.6,0.3,0.8,0.3l1-0.3c0.1,0,0.2,0,0.3,0h0.1c0.5,0,0.9-0.3,1.1-0.8l0-0.3l0-0.2
		c-0.2-0.6-0.8-1.1-1.8-1.5l-0.2-0.1l-0.2,0.1c-0.4,0.1-0.5,0.1-0.5,0.1h-0.8c-0.4,0-0.6-0.1-0.6-0.1l-0.2-0.1l-0.2,0
		c-0.3,0-0.5,0.1-0.7,0.1h-0.2l-0.3-0.1l-0.6,0.2c0,0-0.1,0-0.1,0l-0.2,0c-0.6,0-1.3,0-2.2,0.1c-0.3-0.1-0.5-0.1-0.6-0.1
		c-0.8,0-1.2,0.9-1.3,1.2l-0.1,0.2l0,0.1c-0.1,0.3-0.1,0.6-0.1,0.8c0,0.2,0.1,0.6,0.6,1l0.1,0.1l0.6,0l0.6-0.1
		c0.2,0.1,0.4,0.1,0.6,0.1h0.3l0.2-0.3c0.1-0.2,0.2-0.3,0.2-0.3H80c0.1,0,0.3,0,0.4,0.5c0,0,0,0.1,0,0.2l0,0.2l0.1,0.2
		c0.2,0.5,0.2,0.7,0.3,0.8c0,0.3,0,0.7-0.1,1.1l0,0.2l0.1,0.1c0.1,0.1,0.1,0.3,0.1,0.5v0.5c0,0.3-0.1,1.2-0.2,2
		c0.1,2.2,0.2,3.2,0.2,3.2c0,0.4-0.1,0.9-0.1,1.5l0,1l-0.2,0.7c0,0.5,0.1,1.1,0.1,1.6c0,0.3,0,0.5,0,0.6c0,0-0.1,0-0.1-0.1l-0.2-0.1
		l-0.2,0c-0.6,0.1-1,0.3-1.4,0.4l-0.4-0.4h-0.2c-0.6,0-1.3,0.3-1.6,2.1l0,0.1c0.1,0.3,0.2,1.2,1,1.2c0,0,0,0,0,0l0.1,0
		c0.3-0.1,0.4-0.1,0.5-0.1h1.5c0.8,0,1.6-0.1,2.4-0.3c0.2,0.2,0.4,0.3,0.6,0.4l0.2,0.1l0.7-0.2c0.3,0,0.5,0.1,0.7,0.3l0.2,0.1
		l0.3-0.1c0.2-0.1,0.5-0.1,0.7-0.2l0,0.1l1,0l0.2,0c0.4-0.2,0.6-0.3,0.7-0.3c0.5,0.2,1.2,0.4,2,0.4l0.4,0l0.2-0.3
		c1.4-0.1,1.6-0.9,1.6-1.3c0,0,0-0.2-0.1-0.5L91.4,220.6L91.4,220.6z"/>
	<path d="M109.9,220.6c0-0.7-0.1-1.2-0.2-1.6l0.1-1.6l0-0.1c-0.1-1.2-0.3-2.2-0.6-3l0.1-0.5l-0.1-0.2c-0.1-0.3-0.5-1.3-1.3-1.3h-0.2
		l-0.2,0.2c-0.4,0.4-0.6,0.8-0.6,1.3l0.1,0.8l-0.4,1.5l0.2,0.9c0,0,0,0,0,0.1l-0.1,0.2l0.1,0.2c0,0.1-0.1,1-0.1,1.5
		c0,0.3-0.1,0.6-0.6,0.8H106c0,0-0.1,0-0.4-0.2l-1-0.8v0.5l-0.1,0c-0.1,0.1-0.2,0.1-0.3,0.2l0-0.3l-1,1.1c0,0,0,0-0.1,0.1h-0.5
		c-0.3,0-0.4,0-0.5-0.1c-0.1-0.5-0.1-0.8-0.2-1.1l0.1-0.4l-0.2-1.4l0.1-1c-0.2-1.4-0.2-1.9-0.2-2c0,0,0-0.2,0.1-0.8
		c0-1,0-2.3,0.1-3.8l0-0.1l-0.1-0.1c-0.1-0.3-0.2-0.5-0.2-0.5c0.3-1,0.3-1,0.3-1.1c0-0.6-0.1-1.1-0.3-1.6c0.1-0.7,0.2-1.1,0.2-1.4
		c0.1,0,0.4-0.1,0.9-0.1c0.5,0.2,0.6,0.3,0.8,0.3l1-0.3c0.1,0,0.2,0,0.3,0h0.1c0.5,0,0.9-0.3,1.1-0.8l0-0.3l0-0.2
		c-0.2-0.6-0.8-1.1-1.8-1.5l-0.2-0.1l-0.2,0.1c-0.4,0.1-0.5,0.1-0.5,0.1h-0.8c-0.4,0-0.6-0.1-0.6-0.1l-0.2-0.1l-0.2,0
		c-0.3,0-0.5,0.1-0.7,0.1h-0.2l-0.3-0.1l-0.6,0.2c0,0-0.1,0-0.1,0l-0.2,0c-0.6,0-1.3,0-2.2,0.1c-0.3-0.1-0.5-0.1-0.6-0.1
		c-0.5,0-1,0.4-1.3,1.2l-0.1,0.2l0,0.1c-0.1,0.3-0.1,0.6-0.1,0.8c0,0.2,0.1,0.6,0.6,1l0.1,0.1l0.6,0l0.6-0.1
		c0.2,0.1,0.4,0.1,0.6,0.1H98l0.2-0.3c0.1-0.2,0.2-0.3,0.2-0.3h0.1c0.1,0,0.3,0,0.4,0.5c0,0,0,0.1,0,0.2l0,0.2l0.1,0.2
		c0.2,0.6,0.2,0.8,0.3,0.8c0,0.3,0,0.7-0.1,1.2l0,0.2l0.1,0.1c0.1,0.1,0.1,0.3,0.1,0.5v0.5c0,0.2,0,0.6-0.2,2c0.2,2.3,0.2,3,0.2,3.2
		c0,0.4-0.1,0.8-0.1,1.5l0,1l-0.2,0.7c0,0.5,0.1,1.1,0.1,1.6c0,0.3,0,0.5,0,0.6c0,0-0.1,0-0.1-0.1l-0.2-0.1l-0.2,0
		c-0.6,0.1-1,0.3-1.4,0.4l-0.4-0.4h-0.2c-0.6,0-1.3,0.3-1.6,2.1l0,0.1c0.1,0.3,0.2,1.2,1,1.2c0,0,0,0,0,0l0.1,0
		c0.3-0.1,0.4-0.1,0.5-0.1H98c0.8,0,1.6-0.1,2.4-0.3c0.2,0.2,0.4,0.3,0.6,0.4l0.2,0.1l0.7-0.2c0.3,0,0.5,0.1,0.7,0.3l0.2,0.1
		l0.3-0.1c0.2-0.1,0.5-0.1,0.7-0.2l0,0.1l1,0l0.2,0c0.4-0.2,0.6-0.3,0.7-0.3c0.5,0.2,1.2,0.4,2,0.4l0.4,0l0.2-0.3
		c1.4-0.1,1.6-0.9,1.6-1.3c0,0,0-0.2-0.1-0.5L109.9,220.6L109.9,220.6z"/>
	<path d="M121.8,205.7h0.6c0.2,0,0.5,0,0.9,0.1l0.1,0l1-0.3c0.5,0.1,0.6,0.1,0.7,0.1c0.3,0,0.6-0.1,0.9-0.3l0.3-0.2l0-0.3
		c0-0.6-0.1-1.1-0.2-1.4c-0.2-0.9-1.4-1.1-1.8-1.2l-0.2,0l-0.5,0.3c-0.1,0-0.2-0.1-0.4-0.1l-0.1,0c-0.1,0-0.4,0-1.1,0.1
		c-0.6-0.1-1-0.2-1.3-0.3l-0.1,0l-0.1,0c-0.3,0-0.5,0.1-0.7,0.1h-0.3c-0.9,0-1.8-0.1-2.4-0.2l-0.1,0c-1.3,0-2.1,0.2-2.4,0.8
		l-0.5,2.5l1.5,0.9v-0.5c0.1,0,0.2,0,0.3,0.1l0.2,0c0.2,0,0.5-0.1,1.1-0.5c0.5,0,0.9,0.2,1.2,0.6l0.1,0.1l0.2,0
		c0.2,0,0.2,0.1,0.2,0.1l0,0.2c-0.2,2.1-0.4,3.8-0.5,5.3l0,0l0.1,0.5l0,0.1c0,0,0,0.2-0.2,0.7l-0.1,0.1l0,0.2c0,0.3,0.2,0.7,0.4,1.1
		l0,0.5c-0.1,1.4-0.2,1.7-0.2,1.8l0,0.1l0.1,0.6l0,0.6c0,0.2-0.1,0.5-0.1,0.9c0,0.1,0,0.2,0,0.5l-0.2,0l-0.1,0l-0.1,0
		c-0.6,0.1-1.2,0.2-1.8,0.4l-0.6-0.2l-0.1,0c-0.4,0-0.9,0.3-1,1c-0.3,0.5-0.5,0.9-0.5,1.3v0.3c0,0.5,0.2,1.7,2,1.7h0.2l0.2-0.1
		c0.4-0.3,0.7-0.4,0.7-0.4c0,0,0.1,0,0.3,0.2l0.2,0.1h0.2c0.2,0,0.3,0,0.8-0.3c1.3,0.1,1.8,0.3,1.9,0.4l0.3,0.1l0.3-0.2h0.9l0.9,0.6
		v-0.7c0.3,0.1,0.4,0.1,0.5,0.1c0.3,0,0.5-0.1,0.8-0.2c0.5,0.1,0.7,0.1,0.9,0.1h0.6v-0.3c0,0,0.1-0.1,0.1-0.1l0.2-0.2v-0.2
		c0.2-0.3,0.3-0.6,0.3-0.9v-0.3c0-0.6-0.3-1.1-0.9-1.3c-0.8-0.5-1.7-0.9-2.6-1.1l-0.1,0c0-0.1,0.1-0.2,0.1-0.2l0-0.1l0-0.1
		c0-0.3-0.1-0.8-0.4-1v-0.4l0.1-0.3l-0.1-0.3c-0.1-0.1-0.1-0.3-0.1-0.5l0-1h-0.2V215h-0.4c0.4-0.4,0.5-1.2,0.6-1.9
		c0-0.2-0.1-0.4-0.2-0.7l0.4-0.3l-0.1-0.4c-0.2-0.4-0.2-0.7-0.2-0.8v-0.6h-0.6c0-0.3-0.1-0.7-0.1-1c0-0.2,0-0.4,0.1-0.9
		c0-0.1,0-0.3-0.1-0.7c0-0.1,0-0.4,0.1-1c0-0.1,0-0.1-0.1-0.9v0C121.5,205.7,121.6,205.7,121.8,205.7z M121.6,219.5
		C121.6,219.5,121.6,219.5,121.6,219.5C121.6,219.5,121.6,219.5,121.6,219.5L121.6,219.5z"/>
	<path d="M143.7,213.7c0-0.4,0-1.3,0.1-2.6c-0.1-0.6-0.1-0.9-0.2-1.2c-0.1-2.3-0.4-3-0.8-3.3c-0.4-1.4-0.7-2.1-1.3-2.3
		c-0.5-0.8-0.7-1-0.9-1.1l-0.1-0.1c-1.4-0.4-1.9-0.6-2.2-0.7l-0.2-0.1l-0.4,0.1c-0.1,0-0.3,0-0.6-0.1l-0.2,0l-0.2,0.1
		c-0.1,0.1-0.2,0.1-0.2,0.1c-0.1,0-0.3-0.1-0.6-0.2l-0.1,0l-0.6,0.1l-0.5-0.1l-0.1,0c-0.1,0-0.1,0-2.5,0.3l-1.2-0.1l-0.2,0.1
		c-0.6,0.3-0.9,0.8-0.9,1.3c0,0.5,0.3,1,0.9,1.5l0.3,0.2l0.7-0.3h0.9c0.2,0,0.7,0,0.7,1.3c-0.1,0.7-0.1,1.3-0.1,1.8v1.8
		c0,0.5,0,1,0.1,1.6c0,0.2-0.1,0.3-0.1,0.6l0.1,0.6c0,0.1,0,0.2,0,0.3c-0.1,0.4-0.1,0.7-0.1,0.9v0.3c0,0.4,0,0.8,0.1,1.3
		c0,0.1-0.1,0.3-0.2,0.7l0,0.1l0.1,0.9l-0.3,1.3h0.3c0,0.1,0,0.3,0,0.5c0,0.1,0,0.4-0.7,0.5c-0.2,0-0.5,0-1.1-0.1
		c-0.7,0-2,0.3-2,2.5l0,0.1c0.3,0.9,0.9,1,1.2,1h0.2l0.1-0.1c0.3-0.2,0.4-0.3,0.6-0.3c0.7,0.3,1.5,0.5,2.2,0.6l0.6,0v-0.3
		c0.3-0.1,0.9-0.1,2.2-0.2c0.4,0.2,0.9,0.2,1.3,0.1l0.4,0.1l0.7-0.2l0.1-0.1c0.8-0.9,1.2-1,1.4-1h0.3l0.2-0.3
		c0.4-0.7,0.6-0.8,0.6-0.8l0,0l0.3-0.1l0.1-0.3c0.2-0.6,0.6-1.3,1.2-2.2l0.1-0.1l0-0.2c0.1-1.3,0.3-2.2,0.5-2.8l0-0.1l0-0.1
		C143.7,214.2,143.7,213.8,143.7,213.7z M140.8,212.6l0,0.2c0,0.3,0,0.6,0.1,0.9l-0.1,0.7c-0.6,1.9-0.8,2.5-0.8,2.7
		c-0.3,0.4-0.5,0.7-0.5,1c-0.4,0.4-0.7,0.7-0.8,0.9c-0.5,0.1-1,0.3-1.5,0.7c-0.7-0.1-0.8-0.1-0.9-0.1c-0.2,0-0.3,0-0.3-0.4l0-0.6
		c0.2-0.9,0.2-1.3,0.2-1.7c-0.2-1.1-0.3-1.3-0.3-1.3l0-0.6l0.1-1.3h-0.3c0,0,0-0.1,0-0.1c0-0.1,0-0.4,0.3-1.4l0,0l-0.1-3.6
		c0.1-0.3,0.1-0.7,0.1-1.1v-2.2c0-0.2,0.3-0.4,0.7-0.5l0,0l0.4,0.1c2,0.7,2.5,1.1,2.6,1.2v0.5l0.6,0c0,0,0.1,0.1,0.1,0.5v0.1
		l-0.1,0.4l0.2,0.3c0.3,0.5,0.4,0.9,0.5,1.3c0,0,0,0,0,0.1l-0.1,0.1l0,0.1c0.1,1.3,0.1,2.2,0.2,2.5C141,212.1,141,212.3,140.8,212.6
		z"/>
	<path d="M160.6,213.6l0.1-0.6c-0.1-2.7-0.1-4.2-0.2-4.6c0-0.1-0.1-0.3-0.2-0.4c0-0.2-0.1-0.4-0.1-0.6h0.1l-0.4-0.9
		c0-0.1-0.1-0.3-0.3-0.4c-0.1-0.3-0.3-0.5-0.3-0.6l-0.1-0.2c-0.3-1-0.7-1.5-1.1-1.6c-0.6-0.6-1-0.9-1.3-1.1
		c-0.3-0.4-0.9-0.7-2.2-0.9l-0.2,0l-1,0.4l-0.3,0c-0.9,0.1-2,0.3-2.4,1c-0.3,0.1-0.6,0.2-0.7,0.4l-0.3,0.3l0.1,0.2
		c0,0.1,0,0.1,0,0.2c-0.7,1.1-0.9,1.5-1,1.7c-0.3,0.2-0.4,0.6-0.5,0.8l-0.1,0.2l0.1,0.5c-0.3,1.1-0.5,1.4-0.6,1.6l-0.1,0.1v1.5
		c0,0.2,0,0.3-0.1,0.4l-0.1,0.1l0,0.4c0,0.2,0,0.3,0.1,0.4c-0.1,0.7-0.1,0.7-0.1,0.8v0.3l0.3,0.7c0,0.8-0.1,1.4-0.1,2v0.4
		c0,0.2,0,0.5,0.2,1.7c0,0.3,0.1,0.9,1,2.4c0.1,0.6,0.4,1.1,1,1.5l1.1,1.2l0.2,0c0.5,0.1,0.6,0.2,0.6,0.2l0.2,0.2h0.6
		c0.2,0.1,0.5,0.2,0.8,0.2h0.7c0.1,0.1,0.2,0.1,0.3,0.2v1l0.8-0.9h0.4v-0.5c0.3-0.3,0.6-0.5,0.9-0.8h0.3c0.6,0,1.1-0.4,1.7-1.3
		c0.6-0.6,0.9-1.1,1-1.5c0.5-0.5,0.7-1.3,0.7-2.2l0.5-1.1l-0.1-0.8c0.2-0.9,0.2-1.1,0.2-1.2C160.7,214.2,160.7,213.9,160.6,213.6z
		 M157.9,214.2c0,0.2,0,0.6,0.1,0.9c0,0,0,0,0,0.1l0,0.1c0,0,0,0.1-0.3,0.6l-0.1,0.2v0.8c0,0,0,0.1-0.2,0.5l0,0.1l-0.2,0.2l-0.1,0.2
		c-0.2,0.7-0.5,1.2-0.9,1.5l-0.1,0.1c-0.3,0.5-0.8,0.8-1.5,1l-1.2-0.3c-0.4-0.5-0.8-0.8-1.1-1c-0.4-0.6-0.7-0.9-0.9-1
		c-0.2-0.5-0.4-0.9-0.5-1.1c-0.1-0.7-0.2-1.2-0.4-1.4c-0.1-0.8-0.3-1.5-0.6-2.1c0.2-0.7,0.2-0.7,0.2-0.8v-0.1l-0.2-0.6l0.1-0.8
		l-0.1-0.5c0,0,0-0.1,0.1-0.3l0.1-0.1l0-0.6c0.3-1.5,0.5-2,0.6-2.1h0.3l0.2-0.4c0.7-1.6,1-1.7,1-1.7l0.2,0l0.1-0.2
		c0.3-0.5,0.7-0.8,1-0.8h0.7v0.2l0.4,0.1c1,0.3,1.4,0.5,1.7,0.6l0.2,0c0.1,0,0.4,0.2,0.7,1.2l0.1,0.4h0.1c0.2,0.4,0.3,0.7,0.4,0.9
		l0,0.4l-0.1,0.9l0.1,0.4c-0.2,0.1-0.4,0.3-0.4,0.7l0,0.3l0.1,0.5h0.5c0.1,0,0.2,0,0.3,0c0.1,0.4,0.1,0.9,0.2,1.5
		C157.9,213.7,157.9,214.1,157.9,214.2z"/>
</g>
</svg>
